<svg width="15" height="14" viewBox="0 0 15 14" fill="none" xmlns="http://www.w3.org/2000/svg">
<path d="M9.03125 12.9062C9.34375 12.5938 9.3125 12.125 9.03125 11.8125L5.25 8.25H14.25C14.6562 8.25 15 7.90625 15 7.5V6.5C15 6.0625 14.6562 5.75 14.25 5.75L5.25 5.75L9.03125 2.15625C9.3125 1.84375 9.34375 1.375 9.03125 1.0625L8.34375 0.375C8.0625 0.09375 7.5625 0.09375 7.28125 0.375L1.21875 6.46875C0.90625 6.75 0.90625 7.21875 1.21875 7.53125L7.28125 13.5938C7.5625 13.875 8.03125 13.875 8.34375 13.5938L9.03125 12.9062Z" fill="#EB8329"/>
</svg>
