<svg width="13" height="21" viewBox="0 0 13 21" fill="none" xmlns="http://www.w3.org/2000/svg">
<path d="M0.441406 10.5391C0.441406 10.9492 0.59375 11.3008 0.921875 11.6055L10.0391 20.5352C10.2969 20.793 10.625 20.9336 11.0117 20.9336C11.7852 20.9336 12.4062 20.3242 12.4062 19.5391C12.4062 19.1523 12.2422 18.8125 11.9844 18.543L3.76953 10.5391L11.9844 2.53516C12.2422 2.26562 12.4062 1.91406 12.4062 1.53906C12.4062 0.753906 11.7852 0.144531 11.0117 0.144531C10.625 0.144531 10.2969 0.285156 10.0391 0.542969L0.921875 9.46094C0.59375 9.77734 0.441406 10.1289 0.441406 10.5391Z" fill="white"/>
</svg>
