<svg width="14" height="12" viewBox="0 0 14 12" fill="none" xmlns="http://www.w3.org/2000/svg">
<path d="M8.49433 0.597764C8.27238 0.386375 7.92044 0.394709 7.70905 0.616931C7.49738 0.839153 7.50627 1.19082 7.72822 1.40249L11.9899 5.44443H0.889052C0.582385 5.44443 0.333496 5.69332 0.333496 5.99999C0.333496 6.30665 0.582385 6.55554 0.889052 6.55554H11.9721L7.72822 10.5978C7.50599 10.8094 7.49738 11.1611 7.70905 11.3833C7.81822 11.4978 7.96461 11.5555 8.11127 11.5555C8.24905 11.5555 8.38683 11.5047 8.49433 11.4022L13.3413 6.78554C13.5513 6.57582 13.6668 6.29693 13.6668 5.99999C13.6668 5.70304 13.5513 5.42415 13.3315 5.20499L8.49433 0.597764Z" fill="#005CC8"/>
</svg>
