<svg width="27" height="27" viewBox="0 0 27 27" fill="none" xmlns="http://www.w3.org/2000/svg">
<path d="M21.9375 7.59375H2.53125V5.0625C2.53125 4.83872 2.44236 4.62411 2.28412 4.46588C2.12589 4.30764 1.91128 4.21875 1.6875 4.21875C1.46372 4.21875 1.24911 4.30764 1.09088 4.46588C0.932645 4.62411 0.84375 4.83872 0.84375 5.0625V21.9375C0.84375 22.1613 0.932645 22.3759 1.09088 22.5341C1.24911 22.6924 1.46372 22.7812 1.6875 22.7812C1.91128 22.7812 2.12589 22.6924 2.28412 22.5341C2.44236 22.3759 2.53125 22.1613 2.53125 21.9375V18.5625H24.4688V21.9375C24.4688 22.1613 24.5576 22.3759 24.7159 22.5341C24.8741 22.6924 25.0887 22.7812 25.3125 22.7812C25.5363 22.7812 25.7509 22.6924 25.9091 22.5341C26.0674 22.3759 26.1562 22.1613 26.1562 21.9375V11.8125C26.1562 10.6936 25.7118 9.62056 24.9206 8.82939C24.1294 8.03822 23.0564 7.59375 21.9375 7.59375V7.59375ZM2.53125 9.28125H10.125V16.875H2.53125V9.28125Z" fill="black"/>
</svg>
