<svg width="19" height="19" viewBox="0 0 19 19" fill="none" xmlns="http://www.w3.org/2000/svg">
<path d="M17.2188 4.125H14.25V2.34375C14.25 1.37891 13.4336 0.5625 12.4688 0.5625H6.53125C5.5293 0.5625 4.75 1.37891 4.75 2.34375V4.125H1.78125C0.779297 4.125 0 4.94141 0 5.90625V16.5938C0 17.5957 0.779297 18.375 1.78125 18.375H17.2188C18.1836 18.375 19 17.5957 19 16.5938V5.90625C19 4.94141 18.1836 4.125 17.2188 4.125ZM7.125 2.9375H11.875V4.125H7.125V2.9375ZM13.0625 12.1406C13.0625 12.3262 12.9141 12.4375 12.7656 12.4375H10.6875V14.5156C10.6875 14.7012 10.5391 14.8125 10.3906 14.8125H8.60938C8.42383 14.8125 8.3125 14.7012 8.3125 14.5156V12.4375H6.23438C6.04883 12.4375 5.9375 12.3262 5.9375 12.1406V10.3594C5.9375 10.2109 6.04883 10.0625 6.23438 10.0625H8.3125V7.98438C8.3125 7.83594 8.42383 7.6875 8.60938 7.6875H10.3906C10.5391 7.6875 10.6875 7.83594 10.6875 7.98438V10.0625H12.7656C12.9141 10.0625 13.0625 10.2109 13.0625 10.3594V12.1406Z" fill="white"/>
</svg>
