<svg width="17" height="20" viewBox="0 0 17 20" fill="none" xmlns="http://www.w3.org/2000/svg">
<path d="M16.1797 18.1875H15.4375V1.26562C15.4375 0.783203 15.0293 0.375 14.5469 0.375H2.07812C1.55859 0.375 1.1875 0.783203 1.1875 1.26562V18.1875H0.445312C0.185547 18.1875 0 18.4102 0 18.6328V19.375H16.625V18.6328C16.625 18.4102 16.4023 18.1875 16.1797 18.1875ZM4.75 3.19531C4.75 2.97266 4.93555 2.75 5.19531 2.75H6.67969C6.90234 2.75 7.125 2.97266 7.125 3.19531V4.67969C7.125 4.93945 6.90234 5.125 6.67969 5.125H5.19531C4.93555 5.125 4.75 4.93945 4.75 4.67969V3.19531ZM4.75 6.75781C4.75 6.53516 4.93555 6.3125 5.19531 6.3125H6.67969C6.90234 6.3125 7.125 6.53516 7.125 6.75781V8.24219C7.125 8.50195 6.90234 8.6875 6.67969 8.6875H5.19531C4.93555 8.6875 4.75 8.50195 4.75 8.24219V6.75781ZM6.67969 12.25H5.19531C4.93555 12.25 4.75 12.0645 4.75 11.8047V10.3203C4.75 10.0977 4.93555 9.875 5.19531 9.875H6.67969C6.90234 9.875 7.125 10.0977 7.125 10.3203V11.8047C7.125 12.0645 6.90234 12.25 6.67969 12.25ZM9.5 18.1875H7.125V15.0703C7.125 14.8477 7.31055 14.625 7.57031 14.625H9.05469C9.27734 14.625 9.5 14.8477 9.5 15.0703V18.1875ZM11.875 11.8047C11.875 12.0645 11.6523 12.25 11.4297 12.25H9.94531C9.68555 12.25 9.5 12.0645 9.5 11.8047V10.3203C9.5 10.0977 9.68555 9.875 9.94531 9.875H11.4297C11.6523 9.875 11.875 10.0977 11.875 10.3203V11.8047ZM11.875 8.24219C11.875 8.50195 11.6523 8.6875 11.4297 8.6875H9.94531C9.68555 8.6875 9.5 8.50195 9.5 8.24219V6.75781C9.5 6.53516 9.68555 6.3125 9.94531 6.3125H11.4297C11.6523 6.3125 11.875 6.53516 11.875 6.75781V8.24219ZM11.875 4.67969C11.875 4.93945 11.6523 5.125 11.4297 5.125H9.94531C9.68555 5.125 9.5 4.93945 9.5 4.67969V3.19531C9.5 2.97266 9.68555 2.75 9.94531 2.75H11.4297C11.6523 2.75 11.875 2.97266 11.875 3.19531V4.67969Z" fill="white"/>
</svg>
