<svg width="20" height="20" viewBox="0 0 20 20" fill="none" xmlns="http://www.w3.org/2000/svg">
<path d="M19.6933 9.45937C19.6359 9.32287 19.5394 9.20641 19.416 9.12466C19.2925 9.04291 19.1476 8.99954 18.9995 9H15.2495V3.75C15.2495 3.55109 15.1705 3.36032 15.0299 3.21967C14.8892 3.07902 14.6984 3 14.4995 3L5.49954 3C5.30062 3 5.10986 3.07902 4.96921 3.21967C4.82855 3.36032 4.74954 3.55109 4.74954 3.75L4.74954 9H0.999537C0.851468 8.99954 0.706575 9.04291 0.583117 9.12466C0.45966 9.20641 0.363163 9.32287 0.305787 9.45937C0.251753 9.59791 0.238045 9.74891 0.266249 9.89491C0.294453 10.0409 0.363417 10.1759 0.465162 10.2844L9.46516 19.2844C9.60736 19.4252 9.7994 19.5042 9.99954 19.5042C10.1997 19.5042 10.3917 19.4252 10.5339 19.2844L19.5339 10.2844C19.6357 10.1759 19.7046 10.0409 19.7328 9.89491C19.761 9.74891 19.7473 9.59791 19.6933 9.45937ZM14.4995 1.5L5.49954 1.5C5.30062 1.5 5.10986 1.42098 4.96921 1.28033C4.82855 1.13968 4.74954 0.948912 4.74954 0.75C4.74954 0.551088 4.82855 0.360322 4.96921 0.21967C5.10986 0.0790178 5.30062 0 5.49954 0L14.4995 0C14.6984 0 14.8892 0.0790178 15.0299 0.21967C15.1705 0.360322 15.2495 0.551088 15.2495 0.75C15.2495 0.948912 15.1705 1.13968 15.0299 1.28033C14.8892 1.42098 14.6984 1.5 14.4995 1.5Z" fill="white"/>
</svg>
