<svg width="16" height="19" viewBox="0 0 16 19" fill="none" xmlns="http://www.w3.org/2000/svg">
<path d="M14.1875 0.25H1.8125C0.898438 0.25 0.125 1.05859 0.125 1.9375V16.5625C0.125 17.4766 0.898438 18.25 1.8125 18.25H14.1875C15.0664 18.25 15.875 17.4766 15.875 16.5625V1.9375C15.875 1.05859 15.0664 0.25 14.1875 0.25ZM4.625 15.5781C4.625 15.7891 4.37891 16 4.16797 16H2.79688C2.58594 16 2.375 15.7891 2.375 15.5781V14.207C2.375 13.9961 2.58594 13.75 2.79688 13.75H4.16797C4.37891 13.75 4.625 13.9961 4.625 14.207V15.5781ZM4.625 11.0781C4.625 11.2891 4.37891 11.5 4.16797 11.5H2.79688C2.58594 11.5 2.375 11.2891 2.375 11.0781V9.70703C2.375 9.49609 2.58594 9.25 2.79688 9.25H4.16797C4.37891 9.25 4.625 9.49609 4.625 9.70703V11.0781ZM9.125 15.5781C9.125 15.7891 8.87891 16 8.66797 16H7.29688C7.08594 16 6.875 15.7891 6.875 15.5781V14.207C6.875 13.9961 7.08594 13.75 7.29688 13.75H8.66797C8.87891 13.75 9.125 13.9961 9.125 14.207V15.5781ZM9.125 11.0781C9.125 11.2891 8.87891 11.5 8.66797 11.5H7.29688C7.08594 11.5 6.875 11.2891 6.875 11.0781V9.70703C6.875 9.49609 7.08594 9.25 7.29688 9.25H8.66797C8.87891 9.25 9.125 9.49609 9.125 9.70703V11.0781ZM13.625 15.5781C13.625 15.7891 13.3789 16 13.168 16H11.7969C11.5859 16 11.375 15.7891 11.375 15.5781V9.70703C11.375 9.49609 11.5859 9.25 11.7969 9.25H13.168C13.3789 9.25 13.625 9.49609 13.625 9.70703V15.5781ZM13.625 6.57812C13.625 6.78906 13.3789 7 13.168 7H2.79688C2.58594 7 2.375 6.78906 2.375 6.57812V2.95703C2.375 2.74609 2.58594 2.5 2.79688 2.5H13.168C13.3789 2.5 13.625 2.74609 13.625 2.95703V6.57812Z" fill="#1D1D1D"/>
</svg>
