<svg width="24" height="26" viewBox="0 0 24 26" fill="none" xmlns="http://www.w3.org/2000/svg">
<path d="M22 2H19V1C19 0.734784 18.8946 0.48043 18.7071 0.292893C18.5196 0.105357 18.2652 0 18 0C17.7348 0 17.4804 0.105357 17.2929 0.292893C17.1054 0.48043 17 0.734784 17 1V2H7V1C7 0.734784 6.89464 0.48043 6.70711 0.292893C6.51957 0.105357 6.26522 0 6 0C5.73478 0 5.48043 0.105357 5.29289 0.292893C5.10536 0.48043 5 0.734784 5 1V2H2C1.46957 2 0.960859 2.21071 0.585786 2.58579C0.210714 2.96086 0 3.46957 0 4V24C0 24.5304 0.210714 25.0391 0.585786 25.4142C0.960859 25.7893 1.46957 26 2 26H22C22.5304 26 23.0391 25.7893 23.4142 25.4142C23.7893 25.0391 24 24.5304 24 24V4C24 3.46957 23.7893 2.96086 23.4142 2.58579C23.0391 2.21071 22.5304 2 22 2ZM17.1875 14.725L11.35 20.225C11.2592 20.314 11.1518 20.3841 11.0338 20.4313C10.9158 20.4785 10.7896 20.5018 10.6625 20.5C10.4063 20.501 10.1598 20.4024 9.975 20.225L6.8125 17.225C6.71092 17.1364 6.6283 17.0281 6.56962 16.9067C6.51094 16.7854 6.47741 16.6534 6.47104 16.5187C6.46466 16.3841 6.48559 16.2495 6.53255 16.1231C6.5795 15.9968 6.65153 15.8812 6.74429 15.7834C6.83706 15.6856 6.94864 15.6075 7.07234 15.5539C7.19604 15.5003 7.3293 15.4723 7.46411 15.4715C7.59892 15.4707 7.7325 15.4972 7.85681 15.5493C7.98112 15.6015 8.09361 15.6783 8.1875 15.775L10.6625 18.125L15.8125 13.275C15.9069 13.1833 16.0188 13.1114 16.1414 13.0635C16.2641 13.0157 16.395 12.9928 16.5266 12.9963C16.6583 12.9998 16.7878 13.0296 16.9078 13.0839C17.0277 13.1382 17.1356 13.2159 17.225 13.3125C17.4071 13.5049 17.5055 13.7617 17.4984 14.0265C17.4914 14.2913 17.3796 14.5425 17.1875 14.725ZM22 8H2V4H5V5C5 5.26522 5.10536 5.51957 5.29289 5.70711C5.48043 5.89464 5.73478 6 6 6C6.26522 6 6.51957 5.89464 6.70711 5.70711C6.89464 5.51957 7 5.26522 7 5V4H17V5C17 5.26522 17.1054 5.51957 17.2929 5.70711C17.4804 5.89464 17.7348 6 18 6C18.2652 6 18.5196 5.89464 18.7071 5.70711C18.8946 5.51957 19 5.26522 19 5V4H22V8Z" fill="#616E88"/>
</svg>
