<svg width="25" height="20" viewBox="0 0 25 20" fill="none" xmlns="http://www.w3.org/2000/svg">
<path d="M6.30664 8.57617C6.64062 7.35156 7.60547 6.38672 8.83008 6.08984L9.23828 5.5332L10.4258 3.9375C10.5 3.82617 10.6113 3.71484 10.7227 3.60352L11.1309 1.52539C11.2051 1.19141 10.834 1.00586 10.5742 1.19141L8.34766 3.04688C8.19922 3.1582 7.97656 3.12109 7.86523 2.97266L6.23242 0.560547C6.08398 0.263672 5.67578 0.375 5.63867 0.708984L5.3418 3.60352C5.3418 3.78906 5.15625 3.9375 4.93359 3.90039L2.11328 3.30664C1.7793 3.23242 1.59375 3.60352 1.7793 3.86328L3.63477 6.08984C3.74609 6.23828 3.70898 6.46094 3.56055 6.57227L1.14844 8.20508C0.851562 8.35352 0.962891 8.76172 1.29688 8.79883L4.19141 9.0957C4.37695 9.0957 4.52539 9.28125 4.48828 9.50391L3.89453 12.3242C3.82031 12.6582 4.19141 12.8438 4.45117 12.6582L5.75 11.582C5.71289 11.1738 5.71289 10.7285 5.82422 10.3203L6.30664 8.57617ZM24.6387 13.5117C24.7871 13.0293 24.75 12.5098 24.6016 12.0645C24.416 11.6191 24.1191 11.248 23.748 10.9512L23.5996 9.83789L23.377 7.87109C23.3027 7.24023 23.0801 6.64648 22.7461 6.12695C22.4121 5.60742 22.0039 5.16211 21.4844 4.86523C21.1133 4.64258 20.7422 4.45703 20.334 4.3457L15.7695 3.12109C15.3613 3.00977 14.9531 2.97266 14.5449 3.00977C14.1367 3.00977 13.7285 3.08398 13.3203 3.23242C13.1348 3.26953 12.9492 3.38086 12.7637 3.45508C12.4297 3.64062 12.0957 3.90039 11.7988 4.19727C11.6504 4.3457 11.502 4.49414 11.3535 4.64258L10.166 6.23828L9.49805 7.16602C9.27539 7.16602 9.01562 7.24023 8.83008 7.31445C8.16211 7.61133 7.64258 8.16797 7.45703 8.91016L6.97461 10.6172C6.86328 11.0625 6.90039 11.4707 7.01172 11.8789C7.04883 12.0273 7.08594 12.1387 7.16016 12.2871L6.64062 14.2168C6.60352 14.3652 6.60352 14.5137 6.60352 14.6992C6.67773 15.1445 7.01172 15.5527 7.45703 15.6641L8.60742 15.9609C9.23828 16.1465 9.90625 15.7754 10.0918 15.1445L10.3887 13.9941L19.5547 16.4434L19.2578 17.5938C19.0723 18.2246 19.4434 18.8926 20.1113 19.041L21.2246 19.3379C21.707 19.4863 22.1895 19.3008 22.4863 18.9297C22.5977 18.8184 22.6348 18.6699 22.709 18.5215L23.2285 16.5918C23.3398 16.4805 23.4512 16.4062 23.5254 16.332C23.8594 16.0352 24.082 15.6641 24.1934 15.2188L24.6387 13.5117ZM10.4629 9.0957C11.168 9.28125 11.9102 10.5801 11.7246 11.248C11.5391 11.9531 10.5371 11.5449 9.86914 11.3594C9.16406 11.1738 8.83008 10.6172 9.01562 9.91211C9.20117 9.24414 9.79492 8.91016 10.4629 9.0957ZM21.2617 10.1348L18.4414 9.39258L12.0586 7.68555L13.2832 6.08984C13.5801 5.64453 14.0996 5.38477 14.6934 5.38477C14.8418 5.38477 14.9902 5.38477 15.1387 5.42188L19.7031 6.64648C20.2227 6.79492 20.668 7.16602 20.8906 7.64844C20.9277 7.79688 21.002 7.98242 21.002 8.16797L21.2617 10.1348ZM21.9297 12.1758C22.6348 12.3613 22.9688 12.918 22.7832 13.623C22.5977 14.291 22.0039 14.625 21.3359 14.4395C20.6309 14.2539 19.5547 14.1055 19.7402 13.4004C19.9258 12.7324 21.2617 11.9902 21.9297 12.1758Z" fill="white"/>
</svg>
