<svg width="27" height="22" viewBox="0 0 27 22" fill="none" xmlns="http://www.w3.org/2000/svg">
<path d="M10.125 1.375C10.125 1.15122 10.2139 0.936612 10.3721 0.778379C10.5304 0.620145 10.745 0.53125 10.9688 0.53125H16.0312C16.255 0.53125 16.4696 0.620145 16.6279 0.778379C16.7861 0.936612 16.875 1.15122 16.875 1.375C16.875 1.59878 16.7861 1.81339 16.6279 1.97162C16.4696 2.12986 16.255 2.21875 16.0312 2.21875H10.9688C10.745 2.21875 10.5304 2.12986 10.3721 1.97162C10.2139 1.81339 10.125 1.59878 10.125 1.375ZM26.1562 10.6562C26.1562 10.88 26.0674 11.0946 25.9091 11.2529C25.7509 11.4111 25.5363 11.5 25.3125 11.5H24.4688V19.9375C24.4688 20.3851 24.291 20.8143 23.9745 21.1307C23.658 21.4472 23.2288 21.625 22.7812 21.625H20.25C19.8024 21.625 19.3732 21.4472 19.0568 21.1307C18.7403 20.8143 18.5625 20.3851 18.5625 19.9375V18.25H8.4375V19.9375C8.4375 20.3851 8.25971 20.8143 7.94324 21.1307C7.62677 21.4472 7.19755 21.625 6.75 21.625H4.21875C3.7712 21.625 3.34197 21.4472 3.02551 21.1307C2.70904 20.8143 2.53125 20.3851 2.53125 19.9375V11.5H1.6875C1.46372 11.5 1.24911 11.4111 1.09088 11.2529C0.932645 11.0946 0.84375 10.88 0.84375 10.6562C0.84375 10.4325 0.932645 10.2179 1.09088 10.0596C1.24911 9.90139 1.46372 9.8125 1.6875 9.8125H2.88984L5.77969 4.76055C5.92512 4.5022 6.13645 4.28703 6.39212 4.13696C6.6478 3.98689 6.93869 3.90728 7.23516 3.90625H19.7648C20.0613 3.90728 20.3522 3.98689 20.6079 4.13696C20.8636 4.28703 21.0749 4.5022 21.2203 4.76055L24.1102 9.8125H25.3125C25.5363 9.8125 25.7509 9.90139 25.9091 10.0596C26.0674 10.2179 26.1562 10.4325 26.1562 10.6562ZM9.28125 14.0312C9.28125 13.8075 9.19236 13.5929 9.03412 13.4346C8.87589 13.2764 8.66128 13.1875 8.4375 13.1875H6.75C6.52622 13.1875 6.31161 13.2764 6.15338 13.4346C5.99514 13.5929 5.90625 13.8075 5.90625 14.0312C5.90625 14.255 5.99514 14.4696 6.15338 14.6279C6.31161 14.7861 6.52622 14.875 6.75 14.875H8.4375C8.66128 14.875 8.87589 14.7861 9.03412 14.6279C9.19236 14.4696 9.28125 14.255 9.28125 14.0312ZM21.0938 14.0312C21.0938 13.8075 21.0049 13.5929 20.8466 13.4346C20.6884 13.2764 20.4738 13.1875 20.25 13.1875H18.5625C18.3387 13.1875 18.1241 13.2764 17.9659 13.4346C17.8076 13.5929 17.7188 13.8075 17.7188 14.0312C17.7188 14.255 17.8076 14.4696 17.9659 14.6279C18.1241 14.7861 18.3387 14.875 18.5625 14.875H20.25C20.4738 14.875 20.6884 14.7861 20.8466 14.6279C21.0049 14.4696 21.0938 14.255 21.0938 14.0312Z" fill="black"/>
</svg>
