<svg width="27" height="17" viewBox="0 0 27 17" fill="none" xmlns="http://www.w3.org/2000/svg">
<path d="M24.4688 0.90625H2.53125C2.0837 0.90625 1.65447 1.08404 1.33801 1.40051C1.02154 1.71697 0.84375 2.1462 0.84375 2.59375V14.4062C0.84375 14.8538 1.02154 15.283 1.33801 15.5995C1.65447 15.916 2.0837 16.0938 2.53125 16.0938H24.4688C24.9163 16.0938 25.3455 15.916 25.662 15.5995C25.9785 15.283 26.1562 14.8538 26.1562 14.4062V2.59375C26.1562 2.1462 25.9785 1.71697 25.662 1.40051C25.3455 1.08404 24.9163 0.90625 24.4688 0.90625ZM7.91016 14.4062L2.53125 9.79727V7.20273L7.91016 2.59375H19.0898L24.4688 7.20273V9.79727L19.0898 14.4062H7.91016ZM17.7188 8.5C17.7188 9.33439 17.4713 10.15 17.0078 10.8438C16.5442 11.5376 15.8853 12.0783 15.1144 12.3976C14.3436 12.7169 13.4953 12.8005 12.677 12.6377C11.8586 12.4749 11.1069 12.0731 10.5169 11.4831C9.92689 10.8931 9.52509 10.1414 9.36231 9.32304C9.19953 8.50468 9.28308 7.65643 9.60238 6.88555C9.92169 6.11468 10.4624 5.4558 11.1562 4.99224C11.85 4.52868 12.6656 4.28125 13.5 4.28125C14.6189 4.28125 15.6919 4.72572 16.4831 5.51689C17.2743 6.30806 17.7188 7.38112 17.7188 8.5Z" fill="black"/>
</svg>
