<svg width="23" height="23" viewBox="0 0 23 23" xmlns="http://www.w3.org/2000/svg">
<path d="M11.5 0.53125C9.33059 0.53125 7.2099 1.17456 5.40609 2.37982C3.60229 3.58508 2.1964 5.29816 1.3662 7.30244C0.536003 9.30672 0.318785 11.5122 0.742016 13.6399C1.16525 15.7676 2.20992 17.7221 3.74393 19.2561C5.27794 20.7901 7.23238 21.8348 9.36011 22.258C11.4878 22.6812 13.6933 22.464 15.6976 21.6338C17.7018 20.8036 19.4149 19.3977 20.6202 17.5939C21.8255 15.7901 22.4688 13.6694 22.4688 11.5C22.4632 8.59262 21.3058 5.80591 19.2499 3.75008C17.1941 1.69425 14.4074 0.536825 11.5 0.53125V0.53125ZM15.7188 12.3438H7.28126C7.05748 12.3438 6.84287 12.2549 6.68463 12.0966C6.5264 11.9384 6.43751 11.7238 6.43751 11.5C6.43751 11.2762 6.5264 11.0616 6.68463 10.9034C6.84287 10.7451 7.05748 10.6563 7.28126 10.6563H15.7188C15.9425 10.6563 16.1571 10.7451 16.3154 10.9034C16.4736 11.0616 16.5625 11.2762 16.5625 11.5C16.5625 11.7238 16.4736 11.9384 16.3154 12.0966C16.1571 12.2549 15.9425 12.3438 15.7188 12.3438Z" fill="black"/>
</svg>
