<svg width="12" height="7" viewBox="0 0 12 7" fill="none" xmlns="http://www.w3.org/2000/svg">
<path d="M6 6.90643C6.23675 6.90643 6.43968 6.81849 6.61556 6.62909L11.77 1.3664C11.9188 1.21759 12 1.02818 12 0.80496C12 0.358512 11.6483 0 11.195 0C10.9718 0 10.7756 0.0947012 10.6201 0.243517L6 4.98534L1.37993 0.243517C1.22435 0.0947012 1.02142 0 0.804961 0C0.351748 0 9.53674e-07 0.358512 9.53674e-07 0.80496C9.53674e-07 1.02818 0.0811729 1.21759 0.229989 1.3664L5.37768 6.62909C5.56032 6.81849 5.76325 6.90643 6 6.90643Z" fill="white"/>
</svg>
