<svg width="8" height="12" viewBox="0 0 8 12" fill="none" xmlns="http://www.w3.org/2000/svg">
<path d="M7.31854 6C7.31854 5.76325 7.2306 5.56032 7.0412 5.38444L1.77851 0.229989C1.6297 0.0811725 1.44029 0 1.21707 0C0.770621 0 0.412109 0.351747 0.412109 0.80496C0.412109 1.02818 0.506811 1.22435 0.655627 1.37993L5.39745 6L0.655627 10.6201C0.506811 10.7756 0.412109 10.9786 0.412109 11.195C0.412109 11.6483 0.770621 12 1.21707 12C1.44029 12 1.6297 11.9188 1.77851 11.77L7.0412 6.62232C7.2306 6.43968 7.31854 6.23675 7.31854 6Z" fill="#0033AA"/>
</svg>
