<svg width="27" height="19" viewBox="0 0 27 19" fill="none" xmlns="http://www.w3.org/2000/svg">
<path d="M19.4062 5.45V4.85938C19.4062 2.21211 15.4195 0.21875 10.125 0.21875C4.83047 0.21875 0.84375 2.21211 0.84375 4.85938V9.07812C0.84375 11.2824 3.60703 13.0332 7.59375 13.5605V14.1406C7.59375 16.7879 11.5805 18.7812 16.875 18.7812C22.1695 18.7812 26.1562 16.7879 26.1562 14.1406V9.92188C26.1562 7.73867 23.4773 5.98789 19.4062 5.45ZM7.59375 11.8414V9.3418C8.43315 9.44967 9.2787 9.50252 10.125 9.5C10.9713 9.50252 11.8169 9.44967 12.6562 9.3418V11.8414C11.8189 11.9719 10.9725 12.0354 10.125 12.0312C9.27754 12.0354 8.43111 11.9719 7.59375 11.8414ZM17.7188 7.59102V9.07812C17.7188 9.96406 16.4109 10.9133 14.3438 11.4934V9.02539C15.7043 8.69844 16.8539 8.20273 17.7188 7.59102ZM2.53125 9.07812V7.59102C3.39609 8.20273 4.5457 8.69844 5.90625 9.02539V11.4934C3.83906 10.9133 2.53125 9.96406 2.53125 9.07812ZM9.28125 14.1406V13.6977L10.125 13.7188C10.5398 13.7188 10.9406 13.7082 11.3273 13.6871C11.7492 13.8348 12.1922 13.9613 12.6562 14.0773V16.5559C10.5891 15.9758 9.28125 15.0266 9.28125 14.1406ZM14.3438 16.9039V14.3937C15.183 14.5039 16.0285 14.5602 16.875 14.5625C17.7213 14.565 18.5669 14.5122 19.4062 14.4043V16.9039C17.7282 17.157 16.0218 17.157 14.3438 16.9039ZM21.0938 16.5559V14.0879C22.4543 13.7609 23.6039 13.2652 24.4688 12.6535V14.1406C24.4688 15.0266 23.1609 15.9758 21.0938 16.5559Z" fill="black"/>
</svg>
