<svg width="18" height="19" viewBox="0 0 18 19" fill="none" xmlns="http://www.w3.org/2000/svg">
<path d="M0 14.5234V16C0 17.2656 3.02344 18.25 6.75 18.25C10.4766 18.25 13.5 17.2656 13.5 16V14.5234C12.0234 15.543 9.38672 16 6.75 16C4.07812 16 1.44141 15.543 0 14.5234ZM11.25 4.75C14.9766 4.75 18 3.76562 18 2.5C18 1.26953 14.9766 0.25 11.25 0.25C7.52344 0.25 4.5 1.26953 4.5 2.5C4.5 3.76562 7.52344 4.75 11.25 4.75ZM0 10.832V12.625C0 13.8906 3.02344 14.875 6.75 14.875C10.4766 14.875 13.5 13.8906 13.5 12.625V10.832C12.0234 12.0273 9.38672 12.625 6.75 12.625C4.07812 12.625 1.44141 12.0273 0 10.832ZM14.625 11.2188C16.6289 10.832 18 10.0938 18 9.25V7.77344C17.1562 8.33594 15.9609 8.72266 14.625 8.96875V11.2188ZM6.75 5.875C3.02344 5.875 0 7.14062 0 8.6875C0 10.2695 3.02344 11.5 6.75 11.5C10.4766 11.5 13.5 10.2695 13.5 8.6875C13.5 7.14062 10.4766 5.875 6.75 5.875ZM14.4492 7.87891C16.5586 7.49219 18 6.75391 18 5.875V4.39844C16.7344 5.27734 14.5898 5.73438 12.3398 5.875C13.3594 6.36719 14.1328 7.03516 14.4492 7.87891Z" fill="#1D1D1D"/>
</svg>
