<svg width="22" height="22" viewBox="0 0 22 22" fill="none" xmlns="http://www.w3.org/2000/svg">
  <path
    d="M10.0117 9.80469C9.45312 10.3203 9.45312 11.2227 10.0117 11.7383C10.5273 12.2969 11.4297 12.2969 11.9453 11.7383C12.5039 11.2227 12.5039 10.3203 11.9453 9.80469C11.4297 9.24609 10.5273 9.24609 10.0117 9.80469ZM11 0.09375C5.11328 0.09375 0.34375 4.90625 0.34375 10.75C0.34375 16.6367 5.11328 21.4062 11 21.4062C16.8438 21.4062 21.6562 16.6367 21.6562 10.75C21.6562 4.90625 16.8438 0.09375 11 0.09375ZM16.4141 6.49609L13.5781 12.6836C13.4062 12.9844 13.1914 13.1992 12.8906 13.3711L6.70312 16.207C5.97266 16.5078 5.24219 15.7773 5.54297 15.0469L8.37891 8.85938C8.55078 8.55859 8.76562 8.34375 9.06641 8.17188L15.2539 5.33594C15.9844 5.03516 16.7148 5.76562 16.4141 6.49609Z"
    fill="currentColor" />
</svg>