<svg width="17" height="20" viewBox="0 0 17 20" fill="none" xmlns="http://www.w3.org/2000/svg">
<path d="M11.875 17H5.64062C4.49023 17 3.5625 16.0723 3.5625 14.9219V3.9375H0.890625C0.371094 3.9375 0 4.3457 0 4.82812V18.4844C0 19.0039 0.371094 19.375 0.890625 19.375H10.9844C11.4668 19.375 11.875 19.0039 11.875 18.4844V17ZM11.875 4.23438V0.375H5.64062C5.12109 0.375 4.75 0.783203 4.75 1.26562V14.9219C4.75 15.4414 5.12109 15.8125 5.64062 15.8125H15.7344C16.2168 15.8125 16.625 15.4414 16.625 14.9219V5.125H12.7656C12.2461 5.125 11.875 4.75391 11.875 4.23438ZM16.3281 3.08398L13.916 0.671875C13.7305 0.486328 13.5078 0.375 13.2852 0.375H13.0625V3.9375H16.625V3.71484C16.625 3.49219 16.5137 3.26953 16.3281 3.08398Z" fill="white"/>
</svg>
