<svg width="21" height="16" viewBox="0 0 21 16" fill="none" xmlns="http://www.w3.org/2000/svg">
<path d="M1 4.60938C1 5.12891 1.37109 5.5 1.89062 5.5H15.25V7.28125C15.25 8.09766 16.1777 8.46875 16.7344 7.91211L19.7031 4.94336C20.0742 4.60938 20.0742 4.05273 19.7031 3.71875L16.7344 0.75C16.1777 0.15625 15.25 0.564453 15.25 1.34375V3.125H1.89062C1.37109 3.125 1 3.5332 1 4.01562V4.60938ZM19.1094 10.25H5.75V8.46875C5.75 7.68945 4.78516 7.28125 4.22852 7.875L1.25977 10.8438C0.888672 11.1777 0.888672 11.7344 1.25977 12.0684L4.22852 15.0371C4.78516 15.5938 5.75 15.2227 5.75 14.4062V12.625H19.1094C19.5918 12.625 20 12.2539 20 11.7344V11.1406C20 10.6582 19.5918 10.25 19.1094 10.25Z" fill="white"/>
</svg>
