<svg width="27" height="27" viewBox="0 0 27 27" fill="none" xmlns="http://www.w3.org/2000/svg">
<path d="M14 12.7422C13.2891 12.7422 12.7812 13.3008 12.7812 13.9609C12.832 17.668 12.3242 21.1719 11.3594 24.7266C11.207 25.2344 11.4609 26.25 12.5273 26.25C13.0859 26.25 13.543 25.9453 13.6953 25.3867C14.4062 22.9492 15.2695 19.0391 15.2188 13.9609C15.2188 13.3008 14.6602 12.7422 14 12.7422ZM13.9492 8.62891C10.8516 8.62891 8.66797 11.0156 8.71875 13.7578C8.71875 16.1953 8.51562 18.6328 8.00781 20.9688C7.90625 21.6289 8.3125 22.2891 8.97266 22.4414C9.63281 22.543 10.293 22.1367 10.3945 21.4766C10.9531 18.9375 11.1562 16.3477 11.1562 13.707C11.1055 12.3867 12.1719 11.0664 13.8984 11.0664C15.4727 11.0664 16.793 12.3359 16.8438 13.8594C16.8438 16.2969 16.6914 18.7852 16.2852 21.1719C16.1836 21.832 16.6406 22.4414 17.3008 22.543C18.3164 22.7461 18.6719 21.7812 18.6719 21.5781C19.1289 19.0391 19.2812 16.3984 19.2812 13.8086C19.2305 11.0156 16.8438 8.67969 13.9492 8.62891ZM8.3125 7.61328C7.80469 7.20703 7.04297 7.25781 6.58594 7.76562C5.31641 9.39062 4.60547 11.4219 4.65625 13.4531C4.65625 15.3828 4.50391 17.3125 4.14844 19.1406C4.04688 19.8516 4.50391 20.4609 5.16406 20.5625C6.17969 20.7656 6.53516 19.8516 6.58594 19.5977C6.94141 17.5664 7.09375 15.4844 7.09375 13.4531C7.04297 11.9297 7.55078 10.5078 8.51562 9.33984C8.92188 8.78125 8.82031 8.01953 8.3125 7.61328ZM13.8984 4.46484C13.0859 4.41406 12.3242 4.51562 11.5625 4.71875C10.9023 4.87109 10.4961 5.53125 10.6484 6.14062C10.8008 6.80078 11.4609 7.20703 12.1211 7.05469C12.6797 6.95312 13.2383 6.90234 13.8477 6.90234C17.6562 6.95312 20.8555 10 20.9062 13.707C20.9062 15.6367 20.8047 17.5664 20.6016 19.4961C20.5508 20.1562 21.0078 20.7656 21.668 20.8164C22.5312 20.918 22.9883 20.2578 23.0391 19.75C23.1914 18.2773 23.3438 15.8906 23.3438 14.418C23.3438 14.2148 23.3438 13.8594 23.3438 13.6562C23.2422 8.67969 19.0273 4.51562 13.8984 4.46484ZM26.6953 10.6094C26.543 9.94922 25.8828 9.54297 25.2227 9.69531C24.5625 9.84766 24.1562 10.457 24.3086 11.1172C24.5117 12.2344 24.5625 13.0469 24.5117 14.2656C24.5117 14.9258 25.0703 15.4844 25.7305 15.4844C26.4414 15.4844 26.9492 14.9766 26.9492 14.2656C27 13.1484 27 12.0312 26.6953 10.6094ZM24.6133 5.98828C22.1758 2.48438 18.1133 0.351562 13.7969 0.300781C10.293 0.25 6.99219 1.51953 4.55469 3.95703C2.21875 6.34375 0.949219 9.49219 1 12.793V13.9102C0.949219 14.5703 1.50781 15.1289 2.16797 15.1289C2.16797 15.1289 2.16797 15.1289 2.21875 15.1289C2.82812 15.1289 3.38672 14.6211 3.38672 13.9609L3.4375 12.7422C3.38672 10.1016 4.40234 7.61328 6.28125 5.68359C8.26172 3.75391 10.9023 2.6875 13.7969 2.73828C17.3008 2.78906 20.6016 4.51562 22.6328 7.41016C23.0391 7.96875 23.8008 8.07031 24.3594 7.71484C24.8672 7.30859 25.0195 6.54688 24.6133 5.98828Z" fill="white"/>
</svg>
