<svg width="19" height="18" viewBox="0 0 19 18" fill="none" xmlns="http://www.w3.org/2000/svg">
<path d="M1.1875 16C1.1875 16.668 1.70703 17.1875 2.375 17.1875H8.3125V11.25H1.1875V16ZM10.6875 17.1875H16.625C17.2559 17.1875 17.8125 16.668 17.8125 16V11.25H10.6875V17.1875ZM17.8125 5.3125H16.2168C16.4766 4.86719 16.625 4.38477 16.625 3.82812C16.625 2.04688 15.1406 0.5625 13.3594 0.5625C11.8008 0.5625 10.7988 1.37891 9.53711 3.12305C8.23828 1.37891 7.23633 0.5625 5.71484 0.5625C3.89648 0.5625 2.44922 2.04688 2.44922 3.82812C2.44922 4.38477 2.56055 4.86719 2.82031 5.3125H1.1875C0.519531 5.3125 0 5.86914 0 6.5V9.46875C0 9.80273 0.259766 10.0625 0.59375 10.0625H18.4062C18.7031 10.0625 19 9.80273 19 9.46875V6.5C19 5.86914 18.4434 5.3125 17.8125 5.3125ZM5.67773 5.3125C4.86133 5.3125 4.19336 4.68164 4.19336 3.82812C4.19336 3.01172 4.86133 2.34375 5.67773 2.34375C6.41992 2.34375 6.97656 2.49219 8.90625 5.3125H5.67773ZM13.3594 5.3125H10.1309C12.0605 2.49219 12.5801 2.34375 13.3594 2.34375C14.1758 2.34375 14.8438 3.01172 14.8438 3.82812C14.8438 4.68164 14.1758 5.3125 13.3594 5.3125Z" fill="white"/>
</svg>
