<svg width="25" height="15" viewBox="0 0 25 15" fill="none" xmlns="http://www.w3.org/2000/svg">
<path d="M24.082 4.08984L13.7285 0.898438C13.1719 0.712891 12.541 0.712891 11.9844 0.898438L1.63086 4.08984C0.777344 4.34961 0.777344 5.5 1.63086 5.75977L3.44922 6.31641C3.04102 6.79883 2.81836 7.42969 2.78125 8.06055C2.41016 8.2832 2.1875 8.6543 2.1875 9.0625C2.1875 9.4707 2.37305 9.80469 2.66992 10.0273L1.74219 14.2949C1.66797 14.666 1.92773 15 2.29883 15H4.41406C4.78516 15 5.04492 14.666 4.9707 14.2949L4.04297 10.0273C4.33984 9.80469 4.5625 9.4707 4.5625 9.0625C4.5625 8.6543 4.30273 8.2832 3.96875 8.09766C4.00586 7.54102 4.26562 7.02148 4.74805 6.72461L11.9844 8.95117C12.3184 9.0625 12.9863 9.17383 13.7285 8.95117L24.082 5.75977C24.9355 5.5 24.9355 4.34961 24.082 4.08984ZM14.0625 10.1016C13.0234 10.3984 12.0957 10.25 11.6504 10.1016L6.26953 8.43164L5.75 12.625C5.75 13.9609 8.9043 15 12.875 15C16.8086 15 20 13.9609 20 12.625L19.4434 8.43164L14.0625 10.1016Z" fill="white"/>
</svg>
