<svg width="22" height="21" viewBox="0 0 22 21" fill="none" xmlns="http://www.w3.org/2000/svg">
<path d="M12.3434 5.43741V10.0148L16.309 12.3034C16.4684 12.3969 16.5927 12.5402 16.6627 12.7112C16.7328 12.8822 16.7448 13.0715 16.6969 13.2499C16.649 13.4284 16.5438 13.5862 16.3975 13.6991C16.2512 13.812 16.0719 13.8738 15.8871 13.8749C15.7381 13.8791 15.5912 13.8387 15.4652 13.7589L11.0777 11.2276H11.0566L11.0145 11.2066L10.9828 11.1749L10.9512 11.1538L10.9195 11.1222L10.8984 11.1011C10.8773 11.0905 10.8668 11.0694 10.8563 11.0589L10.8352 11.0378L10.8141 10.9956L10.793 10.964L10.7719 10.9323C10.7653 10.9274 10.76 10.9211 10.7563 10.9137C10.7527 10.9064 10.7508 10.8983 10.7508 10.8901L10.7297 10.8585C10.7297 10.848 10.7191 10.8374 10.7191 10.8163C10.7153 10.812 10.7124 10.807 10.7106 10.8016C10.7088 10.7961 10.7081 10.7904 10.7086 10.7847L10.6875 10.7425C10.688 10.7368 10.6873 10.731 10.6855 10.7256C10.6837 10.7201 10.6808 10.7151 10.677 10.7108C10.677 10.6898 10.677 10.6792 10.6664 10.6687V10.6265C10.6664 10.6054 10.6559 10.5948 10.6559 10.5843V5.43741C10.6559 5.21364 10.7448 4.99903 10.903 4.84079C11.0612 4.68256 11.2758 4.59366 11.4996 4.59366C11.7234 4.59366 11.938 4.68256 12.0962 4.84079C12.2545 4.99903 12.3434 5.21364 12.3434 5.43741ZM18.6609 3.33858C16.7592 1.44379 14.1841 0.379883 11.4996 0.379883C8.81508 0.379883 6.23997 1.44379 4.33828 3.33858L3.46289 4.21398L1.95469 2.70577C1.83763 2.58699 1.68799 2.50556 1.52467 2.47177C1.36136 2.43798 1.1917 2.45335 1.03711 2.51593C0.883183 2.58114 0.751455 2.68956 0.657864 2.82807C0.564273 2.96659 0.512832 3.12926 0.509766 3.2964V7.51515C0.509766 7.73892 0.598661 7.95354 0.756894 8.11177C0.915128 8.27 1.12974 8.3589 1.35352 8.3589H5.57227C5.73831 8.35862 5.90058 8.30937 6.03875 8.21729C6.17693 8.12522 6.28487 7.99443 6.34905 7.84129C6.41323 7.68816 6.4308 7.51949 6.39956 7.35641C6.36833 7.19333 6.28967 7.0431 6.17344 6.92452L4.65469 5.40577L5.53008 4.53038C6.71046 3.35132 8.21389 2.54865 9.85035 2.22385C11.4868 1.89905 13.1828 2.06669 14.724 2.70558C16.2652 3.34447 17.5824 4.42593 18.5091 5.81326C19.4359 7.2006 19.9305 8.83153 19.9305 10.4999C19.9305 12.1683 19.4359 13.7992 18.5091 15.1866C17.5824 16.5739 16.2652 17.6554 14.724 18.2942C13.1828 18.9331 11.4868 19.1008 9.85035 18.776C8.21389 18.4512 6.71046 17.6485 5.53008 16.4694C5.45248 16.39 5.35979 16.3269 5.25745 16.2839C5.15512 16.2408 5.04521 16.2186 4.93418 16.2186C4.82315 16.2186 4.71324 16.2408 4.61091 16.2839C4.50857 16.3269 4.41588 16.39 4.33828 16.4694C4.18049 16.6276 4.09187 16.8419 4.09187 17.0653C4.09187 17.2888 4.18049 17.5031 4.33828 17.6612C6.23758 19.5605 8.81359 20.6276 11.4996 20.6276C14.1856 20.6276 16.7616 19.5605 18.6609 17.6612C20.5602 15.7619 21.6273 13.1859 21.6273 10.4999C21.6273 7.81389 20.5602 5.23789 18.6609 3.33858Z" fill="black"/>
</svg>
