<svg width="23" height="18" viewBox="0 0 23 18" fill="none" xmlns="http://www.w3.org/2000/svg">
<path d="M11.3906 4.9043L4.5625 10.5449V16.5938C4.5625 16.9277 4.82227 17.1875 5.15625 17.1875H9.3125C9.60938 17.1875 9.86914 16.9277 9.86914 16.5938V13.0312C9.86914 12.7344 10.166 12.4375 10.4629 12.4375H12.8379C13.1719 12.4375 13.4316 12.7344 13.4316 13.0312V16.5938C13.4316 16.9277 13.7285 17.1875 14.0254 17.1875H18.2188C18.5156 17.1875 18.8125 16.9277 18.8125 16.5938V10.5078L11.9473 4.9043C11.873 4.83008 11.7617 4.79297 11.6875 4.79297C11.5762 4.79297 11.4648 4.83008 11.3906 4.9043ZM22.1895 8.72656L19.1094 6.16602V1.04492C19.1094 0.785156 18.8867 0.599609 18.6641 0.599609H16.5859C16.3262 0.599609 16.1406 0.785156 16.1406 1.04492V3.7168L12.8008 0.970703C12.5039 0.748047 12.0957 0.599609 11.6875 0.599609C11.2422 0.599609 10.834 0.748047 10.5371 0.970703L1.14844 8.72656C1.03711 8.80078 0.962891 8.94922 0.962891 9.06055C0.962891 9.17188 1.03711 9.2832 1.07422 9.35742L2.03906 10.5078C2.11328 10.6191 2.22461 10.6562 2.37305 10.6562C2.48438 10.6562 2.5957 10.6191 2.66992 10.5449L11.3906 3.38281C11.4648 3.30859 11.5762 3.27148 11.6875 3.27148C11.7617 3.27148 11.873 3.30859 11.9473 3.38281L20.668 10.5449C20.7422 10.6191 20.8535 10.6562 20.9648 10.6562C21.1133 10.6562 21.2246 10.6191 21.2988 10.5078L22.2637 9.35742C22.3379 9.2832 22.375 9.17188 22.375 9.06055C22.375 8.94922 22.3008 8.80078 22.1895 8.72656Z" fill="white"/>
</svg>
