<svg width="20" height="20" viewBox="0 0 20 20" fill="none" xmlns="http://www.w3.org/2000/svg">
<path d="M19.6249 1.1661C19.6102 0.961172 19.5221 0.7684 19.3769 0.623119C19.2316 0.477838 19.0388 0.389782 18.8339 0.375088C10.7866 -0.0995209 4.34247 2.32626 1.58973 6.87196C0.636947 8.4264 0.167097 10.2287 0.239734 12.0505C0.303015 13.7274 0.788172 15.436 1.6952 17.113L12.2737 6.52392C12.4377 6.38937 12.6458 6.32061 12.8576 6.33101C13.0694 6.34142 13.2698 6.43024 13.4198 6.5802C13.5697 6.73017 13.6586 6.93055 13.669 7.14238C13.6794 7.3542 13.6106 7.56232 13.4761 7.72626L2.887 18.3048C4.56395 19.2118 6.27255 19.697 7.9495 19.7602H8.29755C10.0018 19.7676 11.6745 19.3001 13.128 18.4102C17.6737 15.6575 20.0995 9.21337 19.6249 1.1661Z" fill="black"/>
</svg>
