<svg width="21" height="22" viewBox="0 0 21 22" fill="none" xmlns="http://www.w3.org/2000/svg">
<path opacity="0.64" d="M5.0625 12.3125H15.9375C16.2188 12.3125 16.5 12.0781 16.5 11.75V10.25C16.5 9.96875 16.2188 9.6875 15.9375 9.6875H5.0625C4.73438 9.6875 4.5 9.96875 4.5 10.25V11.75C4.5 12.0781 4.73438 12.3125 5.0625 12.3125ZM21 2.75C21 1.53125 19.9688 0.5 18.75 0.5H2.25C0.984375 0.5 0 1.53125 0 2.75L0 19.25C0 20.5156 0.984375 21.5 2.25 21.5H18.75C19.9688 21.5 21 20.5156 21 19.25V2.75ZM18.75 18.9688C18.75 19.1562 18.6094 19.25 18.4688 19.25H2.53125C2.34375 19.25 2.25 19.1562 2.25 18.9688V3.03125C2.25 2.89062 2.34375 2.75 2.53125 2.75H18.4688C18.6094 2.75 18.75 2.89062 18.75 3.03125V18.9688Z" fill="#616E88"/>
</svg>
