<svg width="24" height="15" viewBox="0 0 24 15" fill="none" xmlns="http://www.w3.org/2000/svg">
<path d="M22.5625 0.75H1.1875C0.519531 0.75 0 1.30664 0 1.9375V13.8125C0 14.4805 0.519531 15 1.1875 15H22.5625C23.1934 15 23.75 14.4805 23.75 13.8125V1.9375C23.75 1.30664 23.1934 0.75 22.5625 0.75ZM1.78125 13.2188V10.8438C3.08008 10.8438 4.15625 11.9199 4.15625 13.2188H1.78125ZM1.78125 4.90625V2.53125H4.15625C4.15625 3.86719 3.08008 4.90625 1.78125 4.90625ZM11.875 11.4375C10.2051 11.4375 8.90625 9.87891 8.90625 7.875C8.90625 5.9082 10.2051 4.3125 11.875 4.3125C13.5078 4.3125 14.8438 5.9082 14.8438 7.875C14.8438 9.87891 13.5078 11.4375 11.875 11.4375ZM21.9688 13.2188H19.5938C19.5938 11.9199 20.6328 10.8438 21.9688 10.8438V13.2188ZM21.9688 4.90625C20.6328 4.90625 19.5938 3.86719 19.5938 2.53125H21.9688V4.90625Z" fill="white"/>
</svg>
