<svg width="17" height="20" viewBox="0 0 17 20" fill="none" xmlns="http://www.w3.org/2000/svg">
<path d="M8.3335 20C6.61017 20 5.2085 18.5983 5.2085 16.875C5.2085 16.53 5.48849 16.25 5.8335 16.25C6.1785 16.25 6.4585 16.53 6.4585 16.875C6.4585 17.9092 7.29941 18.75 8.3335 18.75C9.36774 18.75 10.2085 17.9092 10.2085 16.875C10.2085 16.53 10.4885 16.25 10.8335 16.25C11.1785 16.25 11.4585 16.53 11.4585 16.875C11.4585 18.5983 10.0568 20 8.3335 20Z" fill="white"/>
<path d="M15.2083 17.5H1.45828C0.654144 17.5 0 16.8459 0 16.0417C0 15.6149 0.185852 15.2109 0.509949 14.9333C1.7775 13.8625 2.5 12.3059 2.5 10.6567V8.33328C2.5 5.11673 5.11673 2.5 8.33328 2.5C11.55 2.5 14.1667 5.11673 14.1667 8.33328V10.6567C14.1667 12.3059 14.8892 13.8625 16.1484 14.9275C16.4809 15.2109 16.6667 15.6149 16.6667 16.0417C16.6667 16.8459 16.0126 17.5 15.2083 17.5ZM8.33328 3.75C5.80582 3.75 3.75 5.80582 3.75 8.33328V10.6567C3.75 12.6741 2.86591 14.5792 1.32507 15.8817C1.29578 15.9067 1.25 15.9584 1.25 16.0417C1.25 16.1549 1.34506 16.25 1.45828 16.25H15.2083C15.3217 16.25 15.4167 16.1549 15.4167 16.0417C15.4167 15.9584 15.3708 15.9067 15.3433 15.8833C13.8008 14.5792 12.9167 12.6741 12.9167 10.6567V8.33328C12.9167 5.80582 10.8609 3.75 8.33328 3.75Z" fill="white"/>
<path d="M8.33301 3.75C7.98801 3.75 7.70801 3.47 7.70801 3.125V0.625C7.70801 0.279999 7.98801 0 8.33301 0C8.67801 0 8.95801 0.279999 8.95801 0.625V3.125C8.95801 3.47 8.67801 3.75 8.33301 3.75Z" fill="white"/>
</svg>
