<svg width="21" height="15" viewBox="0 0 21 15" fill="none" xmlns="http://www.w3.org/2000/svg">
<path d="M19.5176 4.90625H17.3281L16.6973 3.38477C16.0664 1.78906 14.5449 0.75 12.8379 0.75H8.125C6.41797 0.75 4.89648 1.78906 4.26562 3.38477L3.63477 4.90625H1.44531C1.14844 4.90625 0.925781 5.20312 1 5.46289L1.22266 6.35352C1.25977 6.57617 1.44531 6.6875 1.66797 6.6875H2.41016C1.89062 7.13281 1.59375 7.76367 1.59375 8.46875V10.25C1.59375 10.8809 1.81641 11.4004 2.1875 11.8086V13.8125C2.1875 14.4805 2.70703 15 3.375 15H4.5625C5.19336 15 5.75 14.4805 5.75 13.8125V12.625H15.25V13.8125C15.25 14.4805 15.7695 15 16.4375 15H17.625C18.2559 15 18.8125 14.4805 18.8125 13.8125V11.8086C19.1465 11.4004 19.4062 10.8809 19.4062 10.25V8.46875C19.4062 7.76367 19.0723 7.13281 18.5527 6.6875H19.332C19.5176 6.6875 19.7031 6.57617 19.7402 6.35352L19.9629 5.46289C20.0371 5.20312 19.8145 4.90625 19.5176 4.90625ZM6.45508 4.27539C6.75195 3.57031 7.38281 3.125 8.125 3.125H12.8379C13.5801 3.125 14.2109 3.57031 14.5078 4.27539L15.25 6.09375H5.75L6.45508 4.27539ZM4.5625 10.25C3.82031 10.25 3.375 9.80469 3.375 9.0625C3.375 8.35742 3.82031 7.875 4.5625 7.875C5.26758 7.875 6.34375 8.95117 6.34375 9.65625C6.34375 10.3613 5.26758 10.25 4.5625 10.25ZM16.4375 10.25C15.6953 10.25 14.6562 10.3613 14.6562 9.65625C14.6562 8.95117 15.6953 7.875 16.4375 7.875C17.1426 7.875 17.625 8.35742 17.625 9.0625C17.625 9.80469 17.1426 10.25 16.4375 10.25Z" fill="white"/>
</svg>
