<svg width="23" height="20" viewBox="0 0 23 20" fill="none" xmlns="http://www.w3.org/2000/svg">
<path d="M21.7812 8.6875H20.668C20.334 7.94531 19.8516 7.31445 19.2949 6.75781L20 3.9375H18.8125C17.6992 3.9375 16.7344 4.45703 16.1035 5.23633C15.8066 5.19922 15.5098 5.125 15.25 5.125H10.5C7.60547 5.125 5.23047 7.16602 4.67383 9.875H3.07812C2.52148 9.875 2.07617 9.39258 2.1875 8.83594C2.26172 8.39062 2.66992 8.09375 3.11523 8.09375H3.15234C3.26367 8.09375 3.375 8.01953 3.375 7.87109V7.12891C3.375 7.01758 3.26367 6.90625 3.15234 6.90625C2.07617 6.90625 1.14844 7.68555 1 8.72461C0.851562 9.98633 1.81641 11.0625 3.07812 11.0625H4.5625C4.5625 13.0293 5.49023 14.7363 6.9375 15.8125V18.7812C6.9375 19.1152 7.19727 19.375 7.53125 19.375H9.90625C10.2031 19.375 10.5 19.1152 10.5 18.7812V17H15.25V18.7812C15.25 19.1152 15.5098 19.375 15.8438 19.375H18.2188C18.5156 19.375 18.8125 19.1152 18.8125 18.7812V15.8125C19.2207 15.4785 19.6289 15.0703 19.9629 14.625H21.7812C22.0781 14.625 22.375 14.3652 22.375 14.0312V9.28125C22.375 8.98438 22.0781 8.6875 21.7812 8.6875ZM17.0312 11.0625C16.6973 11.0625 16.4375 10.8027 16.4375 10.4688C16.4375 10.1719 16.6973 9.875 17.0312 9.875C17.3281 9.875 17.625 10.1719 17.625 10.4688C17.625 10.8027 17.3281 11.0625 17.0312 11.0625ZM10.5 3.9375H15.25C15.4355 3.9375 15.6211 3.97461 15.8066 3.97461C15.8066 3.97461 15.8438 3.97461 15.8438 3.9375C15.8438 1.9707 14.248 0.375 12.2812 0.375C10.3145 0.375 8.71875 1.9707 8.71875 3.9375C8.71875 4.04883 8.71875 4.12305 8.71875 4.19727C9.27539 4.04883 9.86914 3.9375 10.5 3.9375Z" fill="white"/>
</svg>
