<svg width="22" height="22" viewBox="0 0 22 22" fill="none" xmlns="http://www.w3.org/2000/svg">
<path d="M20.6755 6.09106L17.5325 9.04418L20.7177 17.8086C20.7722 17.96 20.7824 18.1239 20.7469 18.2809C20.7114 18.4378 20.6317 18.5814 20.5173 18.6946L17.986 21.2258C17.8974 21.3122 17.7913 21.3785 17.6749 21.4204C17.5584 21.4622 17.4343 21.4786 17.311 21.4684C17.1885 21.4547 17.0703 21.4146 16.9647 21.3509C16.8591 21.2871 16.7686 21.2013 16.6993 21.0993L12.2063 14.5286L10.2235 16.3532V18.5153C10.2209 18.741 10.13 18.9568 9.9704 19.1164L7.86103 21.2258C7.78337 21.3031 7.69122 21.3643 7.58987 21.4059C7.48853 21.4476 7.37997 21.4688 7.2704 21.4684L7.08056 21.4473C6.94031 21.4156 6.8105 21.3486 6.70344 21.2526C6.59638 21.1566 6.51563 21.0348 6.46884 20.8989L5.10829 16.8805L1.08994 15.52C0.953971 15.4732 0.832219 15.3924 0.736234 15.2854C0.640249 15.1783 0.573216 15.0485 0.541498 14.9082C0.510894 14.7683 0.515083 14.6231 0.553698 14.4851C0.592313 14.3472 0.664176 14.2209 0.762983 14.1172L2.87236 12.0079C3.03309 11.8512 3.24905 11.764 3.47353 11.7653H5.65673L7.629 9.78246L0.889545 5.30004C0.789054 5.22675 0.704511 5.1338 0.641053 5.02683C0.577596 4.91986 0.536548 4.8011 0.520405 4.67778C0.508641 4.55275 0.524247 4.42666 0.566138 4.30827C0.608029 4.18988 0.675201 4.08204 0.762983 3.99223L3.29423 1.46098C3.40785 1.34724 3.55194 1.2688 3.70914 1.23511C3.86634 1.20143 4.02992 1.21394 4.18017 1.27114L12.9446 4.45629L15.7501 1.48207C15.7795 1.43855 15.815 1.39948 15.8556 1.36606C16.4742 0.763853 17.3001 0.421615 18.1633 0.409743C19.0266 0.397872 19.8616 0.71727 20.4965 1.30224C21.1315 1.8872 21.5181 2.69326 21.5769 3.55459C21.6357 4.41592 21.3622 5.26704 20.8126 5.93286C20.7754 5.9924 20.7291 6.04578 20.6755 6.09106V6.09106Z" fill="black"/>
</svg>
