<svg width="23" height="20" viewBox="0 0 23 20" fill="none" xmlns="http://www.w3.org/2000/svg">
<path d="M18.8125 7.5H14.5449L10.6484 0.708984C10.5371 0.523438 10.3516 0.375 10.1289 0.375H7.7168C7.30859 0.375 7.01172 0.783203 7.12305 1.1543L8.94141 7.5H5.15625L3.52344 5.38477C3.41211 5.23633 3.26367 5.125 3.07812 5.125H1.59375C1.18555 5.125 0.888672 5.49609 1 5.86719L2.1875 9.875L1 13.9199C0.888672 14.291 1.18555 14.625 1.59375 14.625H3.07812C3.26367 14.625 3.41211 14.5508 3.52344 14.4023L5.15625 12.25H8.94141L7.12305 18.6328C7.01172 19.0039 7.30859 19.375 7.7168 19.375H10.1289C10.3516 19.375 10.5371 19.2637 10.6484 19.0781L14.5449 12.25H18.8125C20.1113 12.25 22.375 11.2109 22.375 9.875C22.375 8.57617 20.1113 7.5 18.8125 7.5Z" fill="white"/>
</svg>
