<svg width="21" height="21" viewBox="0 0 21 21" fill="none" xmlns="http://www.w3.org/2000/svg">
<path fill-rule="evenodd" clip-rule="evenodd" d="M10.364 18.9544C7.13364 18.9544 4.375 18.4517 4.375 16.4385C4.375 14.4253 7.11614 12.5669 10.364 12.5669C13.5943 12.5669 16.353 14.4073 16.353 16.4205C16.353 18.4329 13.6118 18.9544 10.364 18.9544Z" stroke="white" stroke-width="1.5" stroke-linecap="round" stroke-linejoin="round"/>
<path fill-rule="evenodd" clip-rule="evenodd" d="M10.3575 9.77703C12.4774 9.77703 14.1955 8.05885 14.1955 5.93896C14.1955 3.81908 12.4774 2.1001 10.3575 2.1001C8.23758 2.1001 6.51858 3.81908 6.51858 5.93896C6.51144 8.05169 8.21769 9.76987 10.3304 9.77703C10.34 9.77703 10.3487 9.77703 10.3575 9.77703Z" stroke="white" stroke-width="1.5" stroke-linecap="round" stroke-linejoin="round"/>
</svg>
