<svg width="20" height="20" viewBox="0 0 20 20" fill="none" xmlns="http://www.w3.org/2000/svg">
<path d="M19.6933 10.5406C19.6359 10.6771 19.5394 10.7936 19.416 10.8753C19.2925 10.9571 19.1476 11.0005 18.9995 11H15.2495V16.25C15.2495 16.4489 15.1705 16.6397 15.0299 16.7803C14.8892 16.921 14.6984 17 14.4995 17H5.49954C5.30062 17 5.10986 16.921 4.96921 16.7803C4.82855 16.6397 4.74954 16.4489 4.74954 16.25L4.74954 11H0.999537C0.851468 11.0005 0.706575 10.9571 0.583117 10.8753C0.45966 10.7936 0.363163 10.6771 0.305787 10.5406C0.251753 10.4021 0.238045 10.2511 0.266249 10.1051C0.294453 9.9591 0.363417 9.82406 0.465162 9.71563L9.46516 0.715626C9.60736 0.574789 9.7994 0.495781 9.99954 0.495781C10.1997 0.495781 10.3917 0.574789 10.5339 0.715626L19.5339 9.71563C19.6357 9.82406 19.7046 9.9591 19.7328 10.1051C19.761 10.2511 19.7473 10.4021 19.6933 10.5406ZM14.4995 18.5H5.49954C5.30062 18.5 5.10986 18.579 4.96921 18.7197C4.82855 18.8603 4.74954 19.0511 4.74954 19.25C4.74954 19.4489 4.82855 19.6397 4.96921 19.7803C5.10986 19.921 5.30062 20 5.49954 20H14.4995C14.6984 20 14.8892 19.921 15.0299 19.7803C15.1705 19.6397 15.2495 19.4489 15.2495 19.25C15.2495 19.0511 15.1705 18.8603 15.0299 18.7197C14.8892 18.579 14.6984 18.5 14.4995 18.5Z" fill="white"/>
</svg>
