<svg width="25" height="20" viewBox="0 0 25 20" fill="none" xmlns="http://www.w3.org/2000/svg">
<path d="M24.416 3.97461L17.1797 0.375C16.4375 1.41406 14.7676 2.15625 12.875 2.15625C10.9453 2.15625 9.27539 1.41406 8.5332 0.375L1.29688 3.97461C1 4.12305 0.888672 4.49414 1.03711 4.75391L3.15234 9.02148C3.30078 9.31836 3.67188 9.42969 3.96875 9.28125L6.04688 8.24219C6.45508 8.05664 6.90039 8.35352 6.90039 8.79883V18.1875C6.90039 18.8555 7.45703 19.375 8.08789 19.375H17.5879C18.2559 19.375 18.7754 18.8555 18.7754 18.1875V8.79883C18.7754 8.35352 19.2578 8.05664 19.6289 8.24219L21.7441 9.28125C22.041 9.42969 22.4121 9.31836 22.5605 9.02148L24.6758 4.75391C24.8242 4.49414 24.7129 4.12305 24.416 3.97461Z" fill="white"/>
</svg>
