<svg width="19" height="18" viewBox="0 0 19 18" fill="none" xmlns="http://www.w3.org/2000/svg">
<path d="M18.4062 4.125C18.4062 4.01367 18.2949 3.90234 18.2207 3.86523L9.61133 0.599609C9.57422 0.599609 9.53711 0.599609 9.46289 0.599609C9.42578 0.599609 9.38867 0.599609 9.35156 0.599609L0.742188 3.86523C0.667969 3.90234 0.59375 4.01367 0.59375 4.125V4.71875C0.59375 4.9043 0.705078 5.01562 0.890625 5.01562H1.78125V5.46094C1.78125 5.7207 1.9668 5.90625 2.22656 5.90625H16.7734C16.9961 5.90625 17.2188 5.7207 17.2188 5.46094V5.01562H18.1094C18.2578 5.01562 18.4062 4.9043 18.4062 4.71875V4.125ZM17.5156 15.4062H1.48438C0.964844 15.4062 0.59375 15.8145 0.59375 16.2969V16.8906C0.59375 17.0762 0.705078 17.1875 0.890625 17.1875H18.1094C18.2578 17.1875 18.4062 17.0762 18.4062 16.8906V16.2969C18.4062 15.8145 17.998 15.4062 17.5156 15.4062ZM3.5625 6.5V13.625H2.22656C1.9668 13.625 1.78125 13.8477 1.78125 14.0703V14.8125H17.2188V14.0703C17.2188 13.8477 16.9961 13.625 16.7734 13.625H15.4375V6.5H13.0625V13.625H10.6875V6.5H8.3125V13.625H5.9375V6.5H3.5625Z" fill="white"/>
</svg>
