<svg width="20" height="18" viewBox="0 0 20 18" fill="none" xmlns="http://www.w3.org/2000/svg">
<path d="M19.0625 12.6875C19.1562 12.25 19.1562 11.7812 19.0625 11.3438L19.875 10.875C19.9688 10.8438 20 10.7188 19.9688 10.625C19.75 9.9375 19.4062 9.34375 18.9375 8.8125C18.875 8.75 18.75 8.71875 18.6562 8.78125L17.8438 9.25C17.5 8.96875 17.125 8.71875 16.6875 8.59375V7.65625C16.6875 7.53125 16.625 7.4375 16.5312 7.4375C15.8125 7.28125 15.125 7.28125 14.4375 7.4375C14.3438 7.4375 14.2812 7.53125 14.2812 7.65625V8.59375C13.8438 8.71875 13.4688 8.96875 13.125 9.25L12.3125 8.78125C12.2188 8.71875 12.0938 8.75 12.0312 8.8125C11.5625 9.34375 11.1875 9.9375 11 10.625C10.9688 10.7188 11 10.8438 11.0938 10.875L11.9062 11.3438C11.8125 11.7812 11.8125 12.25 11.9062 12.6875L11.0938 13.1562C11 13.1875 10.9688 13.3125 11 13.4062C11.1875 14.0938 11.5625 14.6875 12.0312 15.2188C12.0938 15.2812 12.2188 15.3125 12.3125 15.25L13.125 14.7812C13.4688 15.0625 13.8438 15.3125 14.2812 15.4375V16.375C14.2812 16.5 14.3438 16.5938 14.4375 16.5938C15.1562 16.75 15.8438 16.75 16.5312 16.5938C16.625 16.5938 16.6875 16.5 16.6875 16.375V15.4375C17.125 15.3125 17.5 15.0625 17.8438 14.7812L18.6562 15.25C18.75 15.3125 18.875 15.2812 18.9375 15.2188C19.4062 14.6875 19.75 14.0938 19.9688 13.4062C20 13.3125 19.9688 13.1875 19.875 13.1562L19.0625 12.6875ZM15.5 13.5312C14.6562 13.5312 13.9688 12.8438 13.9688 12C13.9688 11.1875 14.6562 10.5 15.5 10.5C16.3125 10.5 17 11.1875 17 12C17 12.8438 16.3125 13.5312 15.5 13.5312ZM7 9C9.1875 9 11 7.21875 11 5C11 2.8125 9.1875 1 7 1C4.78125 1 3 2.8125 3 5C3 7.21875 4.78125 9 7 9ZM13.2812 16.0938C13.1875 16.0625 13.125 16 13.0625 15.9688L12.8125 16.125C12.625 16.2188 12.4062 16.2812 12.1875 16.2812C11.875 16.2812 11.5312 16.125 11.3125 15.875C10.7188 15.2812 10.2812 14.5 10.0312 13.7188C9.875 13.1562 10.0938 12.5625 10.5938 12.2812L10.8438 12.125C10.8438 12.0625 10.8438 11.9688 10.8438 11.9062L10.5938 11.75C10.0938 11.4688 9.875 10.875 10.0312 10.3125C10.0625 10.2188 10.125 10.1562 10.1562 10.0625C10.0312 10.0312 9.90625 10 9.78125 10H9.25C8.5625 10.3438 7.8125 10.5 7 10.5C6.1875 10.5 5.40625 10.3438 4.71875 10H4.1875C1.875 10 0 11.9062 0 14.2188V15.5C0 16.3438 0.65625 17 1.5 17H12.5C12.8125 17 13.0938 16.9062 13.3438 16.75C13.3125 16.625 13.2812 16.5 13.2812 16.375V16.0938Z" fill="white"/>
</svg>
