<svg width="16" height="20" viewBox="0 0 16 20" fill="none" xmlns="http://www.w3.org/2000/svg">
<path d="M7.68164 0.96875C7.57031 0.189453 6.01172 0.189453 5.90039 1.00586V6.23828C5.86328 6.34961 5.34375 6.34961 5.30664 6.23828C5.26953 5.31055 5.04688 1.08008 5.00977 0.96875C4.89844 0.189453 3.37695 0.189453 3.26562 0.96875C3.22852 1.08008 3.00586 5.31055 2.96875 6.23828C2.93164 6.34961 2.41211 6.34961 2.375 6.23828V1.00586C2.26367 0.189453 0.705078 0.189453 0.59375 0.96875C0.556641 1.11719 0 4.45703 0 5.71875C0 7.68555 1.00195 9.05859 2.52344 9.61523L2.07812 18.4473C2.04102 18.9668 2.44922 19.375 2.96875 19.375H5.34375C5.82617 19.375 6.23438 18.9668 6.23438 18.4473L5.75195 9.61523C7.27344 9.05859 8.3125 7.68555 8.3125 5.71875C8.3125 4.45703 7.71875 1.11719 7.68164 0.96875ZM12.1348 11.5449L11.5781 18.4102C11.5039 18.9297 11.9492 19.375 12.4688 19.375H14.5469C15.0293 19.375 15.4375 19.0039 15.4375 18.4844V1.26562C15.4375 0.783203 15.0293 0.375 14.5469 0.375C11.4668 0.375 6.30859 7.01758 12.1348 11.5449Z" fill="white"/>
</svg>
