<svg width="12" height="9" viewBox="0 0 12 9" fill="none" xmlns="http://www.w3.org/2000/svg">
<path d="M9.18178 5.1212L7.05334 7.24963C7.05329 7.24968 7.05324 7.24973 7.05319 7.24978C7.05317 7.2498 7.05316 7.24982 7.05314 7.24984C6.81909 7.48357 6.81946 7.8686 7.05314 8.10228C7.28949 8.33864 7.67567 8.34362 7.912 8.10094L11.0696 4.94299C11.3103 4.70902 11.3099 4.32182 11.0697 4.08784L7.91205 0.930172C7.67588 0.687259 7.28933 0.692594 7.05314 0.928782M9.18178 5.1212L7.22991 1.10556M9.18178 5.1212L1.35281 5.1212L1.35241 5.1212C1.01816 5.12066 0.75 4.85279 0.75 4.51807C0.75 4.18811 1.01353 3.91018 1.35281 3.91018L9.18098 3.91018M9.18178 5.1212L9.43145 4.16018L9.18098 3.91018M7.05314 0.928782L7.22991 1.10556M7.05314 0.928782C7.05321 0.928713 7.05328 0.928645 7.05334 0.928576L7.22991 1.10556M7.05314 0.928782C6.81745 1.16415 6.8221 1.54724 7.05013 1.78324L7.05327 1.7865L7.0533 1.78647L9.18098 3.91018M7.22991 1.10556C7.09368 1.24148 7.09368 1.46853 7.22991 1.60953L9.53486 3.91018H9.18098" fill="#616E88" stroke="#616E88" stroke-width="0.5"/>
</svg>
