<svg width="25" height="15" viewBox="0 0 25 15" fill="none" xmlns="http://www.w3.org/2000/svg">
<path d="M6.875 7.5C8.59375 7.5 10 6.13281 10 4.375C10 2.65625 8.59375 1.25 6.875 1.25C5.11719 1.25 3.75 2.65625 3.75 4.375C3.75 6.13281 5.11719 7.5 6.875 7.5ZM20.625 2.5H11.875C11.5234 2.5 11.25 2.8125 11.25 3.125V8.75H2.5V0.625C2.5 0.3125 2.1875 0 1.875 0H0.625C0.273438 0 0 0.3125 0 0.625V14.375C0 14.7266 0.273438 15 0.625 15H1.875C2.1875 15 2.5 14.7266 2.5 14.375V12.5H22.5V14.375C22.5 14.7266 22.7734 15 23.125 15H24.375C24.6875 15 25 14.7266 25 14.375V6.875C25 4.49219 23.0078 2.5 20.625 2.5Z" fill="#616E88"/>
</svg>
