<svg width="18" height="21" viewBox="0 0 18 21" fill="none" xmlns="http://www.w3.org/2000/svg">
<path d="M0.46875 8C0.195312 8 0 8.23438 0 8.46875V18.625C0 19.6797 0.820312 20.5 1.875 20.5H15.625C16.6406 20.5 17.5 19.6797 17.5 18.625V8.46875C17.5 8.23438 17.2656 8 17.0312 8H0.46875ZM17.5 6.28125V4.875C17.5 3.85938 16.6406 3 15.625 3H13.75V0.96875C13.75 0.734375 13.5156 0.5 13.2812 0.5H11.7188C11.4453 0.5 11.25 0.734375 11.25 0.96875V3H6.25V0.96875C6.25 0.734375 6.01562 0.5 5.78125 0.5H4.21875C3.94531 0.5 3.75 0.734375 3.75 0.96875V3H1.875C0.820312 3 0 3.85938 0 4.875V6.28125C0 6.55469 0.195312 6.75 0.46875 6.75H17.0312C17.2656 6.75 17.5 6.55469 17.5 6.28125Z" fill="#616E88"/>
</svg>
