<svg width="28" height="28" viewBox="0 0 28 28" fill="none" xmlns="http://www.w3.org/2000/svg">
<rect width="28" height="28" rx="14" fill="#EEEEEE"/>
<path d="M14.9161 14.0001L18.8099 10.1061C19.0634 9.85279 19.0634 9.44325 18.8099 9.18997C18.5567 8.93668 18.1471 8.93668 17.8939 9.18997L13.9999 13.084L10.1061 9.18997C9.85274 8.93668 9.44333 8.93668 9.19005 9.18997C8.93665 9.44325 8.93665 9.85279 9.19005 10.1061L13.0839 14.0001L9.19005 17.8941C8.93665 18.1474 8.93665 18.5569 9.19005 18.8102C9.31628 18.9365 9.48225 19 9.6481 19C9.81395 19 9.9798 18.9365 10.1061 18.8102L13.9999 14.9162L17.8939 18.8102C18.0202 18.9365 18.1861 19 18.3519 19C18.5178 19 18.6836 18.9365 18.8099 18.8102C19.0634 18.5569 19.0634 18.1474 18.8099 17.8941L14.9161 14.0001Z" fill="black"/>
</svg>
