<svg width="23" height="19" viewBox="0 0 23 19" fill="none" xmlns="http://www.w3.org/2000/svg">
<path d="M0 16.375C0 17.4297 0.820312 18.25 1.875 18.25H20.625C21.6406 18.25 22.5 17.4297 22.5 16.375V9.5H0V16.375ZM7.5 13.7188C7.5 13.4844 7.69531 13.25 7.96875 13.25H13.2812C13.5156 13.25 13.75 13.4844 13.75 13.7188V15.2812C13.75 15.5547 13.5156 15.75 13.2812 15.75H7.96875C7.69531 15.75 7.5 15.5547 7.5 15.2812V13.7188ZM2.5 13.7188C2.5 13.4844 2.69531 13.25 2.96875 13.25H5.78125C6.01562 13.25 6.25 13.4844 6.25 13.7188V15.2812C6.25 15.5547 6.01562 15.75 5.78125 15.75H2.96875C2.69531 15.75 2.5 15.5547 2.5 15.2812V13.7188ZM22.5 2.625C22.5 1.60938 21.6406 0.75 20.625 0.75H1.875C0.820312 0.75 0 1.60938 0 2.625V4.5H22.5V2.625Z" fill="#616E88"/>
</svg>
