<svg width="14" height="14" viewBox="0 0 14 14" fill="none" xmlns="http://www.w3.org/2000/svg">
<path d="M13.2766 3.72415L11.2977 5.58352L13.3032 11.1019C13.3375 11.1972 13.3439 11.3004 13.3216 11.3992C13.2992 11.498 13.249 11.5884 13.177 11.6597L11.5833 13.2534C11.5275 13.3078 11.4607 13.3496 11.3873 13.3759C11.314 13.4023 11.2359 13.4126 11.1583 13.4062C11.0811 13.3975 11.0067 13.3723 10.9402 13.3322C10.8737 13.292 10.8167 13.238 10.7731 13.1738L7.94419 9.03665L6.69575 10.1855V11.5468C6.69407 11.6889 6.63687 11.8248 6.53638 11.9253L5.20825 13.2534C5.15935 13.3021 5.10134 13.3406 5.03753 13.3668C4.97371 13.3931 4.90536 13.4064 4.83638 13.4062L4.71685 13.3929C4.62854 13.3729 4.54681 13.3307 4.4794 13.2703C4.41199 13.2099 4.36115 13.1332 4.33169 13.0476L3.47505 10.5175L0.944973 9.66087C0.859365 9.63141 0.782706 9.58056 0.722271 9.51315C0.661836 9.44575 0.619631 9.36401 0.59966 9.27571C0.58039 9.18762 0.583028 9.09615 0.607341 9.00931C0.631655 8.92248 0.676901 8.84294 0.739113 8.77766L2.06724 7.44954C2.16844 7.35087 2.30442 7.29601 2.44575 7.2968H3.82036L5.06216 6.04837L0.818801 3.2261C0.755528 3.17995 0.702298 3.12143 0.662343 3.05408C0.622388 2.98672 0.596543 2.91195 0.586379 2.8343C0.578972 2.75558 0.588798 2.67619 0.615174 2.60165C0.64155 2.52711 0.683843 2.45921 0.739113 2.40266L2.33286 0.808912C2.4044 0.737297 2.49513 0.687907 2.5941 0.666697C2.69308 0.645488 2.79608 0.653366 2.89068 0.68938L8.40903 2.69485L10.1754 0.822193C10.194 0.794789 10.2163 0.770189 10.2418 0.749146C10.6314 0.369979 11.1514 0.154496 11.6949 0.147021C12.2384 0.139547 12.7641 0.340649 13.1639 0.708961C13.5637 1.07727 13.8072 1.58479 13.8442 2.12711C13.8812 2.66943 13.709 3.20532 13.3629 3.62454C13.3395 3.66203 13.3104 3.69563 13.2766 3.72415Z" fill="#0032A1"/>
</svg>
