<svg width="15" height="17" viewBox="0 0 15 17" fill="none" xmlns="http://www.w3.org/2000/svg">
<path d="M14.4766 15.9375H13.8125V0.796875C13.8125 0.365234 13.4473 0 13.0156 0H1.85938C1.39453 0 1.0625 0.365234 1.0625 0.796875V15.9375H0.398438C0.166016 15.9375 0 16.1367 0 16.3359V17H14.875V16.3359C14.875 16.1367 14.6758 15.9375 14.4766 15.9375ZM4.25 2.52344C4.25 2.32422 4.41602 2.125 4.64844 2.125H5.97656C6.17578 2.125 6.375 2.32422 6.375 2.52344V3.85156C6.375 4.08398 6.17578 4.25 5.97656 4.25H4.64844C4.41602 4.25 4.25 4.08398 4.25 3.85156V2.52344ZM4.25 5.71094C4.25 5.51172 4.41602 5.3125 4.64844 5.3125H5.97656C6.17578 5.3125 6.375 5.51172 6.375 5.71094V7.03906C6.375 7.27148 6.17578 7.4375 5.97656 7.4375H4.64844C4.41602 7.4375 4.25 7.27148 4.25 7.03906V5.71094ZM5.97656 10.625H4.64844C4.41602 10.625 4.25 10.459 4.25 10.2266V8.89844C4.25 8.69922 4.41602 8.5 4.64844 8.5H5.97656C6.17578 8.5 6.375 8.69922 6.375 8.89844V10.2266C6.375 10.459 6.17578 10.625 5.97656 10.625ZM8.5 15.9375H6.375V13.1484C6.375 12.9492 6.54102 12.75 6.77344 12.75H8.10156C8.30078 12.75 8.5 12.9492 8.5 13.1484V15.9375ZM10.625 10.2266C10.625 10.459 10.4258 10.625 10.2266 10.625H8.89844C8.66602 10.625 8.5 10.459 8.5 10.2266V8.89844C8.5 8.69922 8.66602 8.5 8.89844 8.5H10.2266C10.4258 8.5 10.625 8.69922 10.625 8.89844V10.2266ZM10.625 7.03906C10.625 7.27148 10.4258 7.4375 10.2266 7.4375H8.89844C8.66602 7.4375 8.5 7.27148 8.5 7.03906V5.71094C8.5 5.51172 8.66602 5.3125 8.89844 5.3125H10.2266C10.4258 5.3125 10.625 5.51172 10.625 5.71094V7.03906ZM10.625 3.85156C10.625 4.08398 10.4258 4.25 10.2266 4.25H8.89844C8.66602 4.25 8.5 4.08398 8.5 3.85156V2.52344C8.5 2.32422 8.66602 2.125 8.89844 2.125H10.2266C10.4258 2.125 10.625 2.32422 10.625 2.52344V3.85156Z" fill="#616E88"/>
</svg>
