<svg width="72" height="72" viewBox="0 0 72 72" fill="none" xmlns="http://www.w3.org/2000/svg">
<circle cx="36" cy="36" r="36" fill="#E3EAED"/>
<path d="M34.2826 29.1426L34.2793 37.1382C34.2793 37.4418 34.3998 37.732 34.6141 37.9462L40.334 43.665L41.95 42.0489L36.565 36.6649L36.5683 29.1426H34.2826Z" fill="#616E88"/>
<path d="M36.5714 20C28.527 20 21.8692 25.9743 20.7541 33.7143H16L21.7143 39.4286L27.4286 33.7143H23.0636C24.157 27.2386 29.7892 22.2857 36.5714 22.2857C44.1339 22.2857 50.2857 28.4375 50.2857 36C50.2857 43.5626 44.134 49.7143 36.5714 49.7143C32.3203 49.7143 28.3784 47.7902 25.7567 44.4353L23.9554 45.8415C27.0134 49.7545 31.6116 52 36.5714 52C45.394 52 52.5714 44.8214 52.5714 36C52.5714 27.1786 45.394 20.0001 36.5714 20Z" fill="#616E88"/>
</svg>
