<svg width="338" height="524" viewBox="0 0 338 524" fill="none" xmlns="http://www.w3.org/2000/svg">
<rect width="338" height="523.9" rx="4" fill="white"/>
<rect x="0.5" y="0.5" width="337" height="522.9" rx="3.5" stroke="#616E88" stroke-opacity="0.16"/>
<path d="M167.936 70.0078C169.808 70.0078 170.996 68.9278 170.996 67.4278C170.996 66.1678 170.372 65.3878 169.052 65.1238C170.12 64.8838 170.78 64.1398 170.78 63.0238C170.78 61.8118 169.94 60.8038 168.056 60.8038C166.844 60.8038 165.86 61.3438 165.2 62.1118L165.884 62.7478C166.4 62.1358 167.12 61.7398 167.972 61.7398C169.232 61.7398 169.736 62.3158 169.736 63.1558C169.736 64.1398 169.112 64.7038 167.276 64.7038H166.856V65.5798H167.216C169.172 65.5798 169.952 66.1678 169.952 67.4038C169.952 68.4598 169.172 69.0838 167.936 69.0838C167 69.0838 166.208 68.7238 165.572 67.8118L164.804 68.3878C165.488 69.4318 166.604 70.0078 167.936 70.0078Z" fill="#616E88"/>
<path d="M169.136 117.16H170.156V115.108H171.656V114.184H170.156V108.28H168.896L164.852 114.304V115.108H169.136V117.16ZM166.016 114.184L169.112 109.516H169.136V114.184H166.016Z" fill="#616E88"/>
<path d="M167.912 164.648C169.856 164.648 171.044 163.328 171.044 161.516C171.044 159.752 169.928 158.612 168.272 158.612C167.336 158.612 166.748 158.924 166.34 159.38L166.556 156.548H170.444L170.528 155.6H165.704L165.356 160.268L166.112 160.532C166.592 159.86 167.204 159.5 168.068 159.5C169.208 159.5 170 160.208 170 161.564C170 162.704 169.34 163.724 167.888 163.724C166.868 163.724 166.172 163.196 165.608 162.488L164.9 163.136C165.536 164.036 166.592 164.648 167.912 164.648Z" fill="#616E88"/>
<path d="M168.356 211.968C170.144 211.968 171.416 210.708 171.416 208.992C171.416 207.324 170.432 206.208 168.62 206.208C167.54 206.208 166.724 206.736 166.148 207.336C166.172 205.224 167.144 203.676 168.68 203.676C169.448 203.676 169.916 203.892 170.36 204.228L170.888 203.448C170.408 203.064 169.7 202.752 168.716 202.752C166.652 202.752 165.116 204.66 165.116 207.516C165.116 210.54 166.52 211.968 168.356 211.968ZM168.416 211.068C167.252 211.068 166.34 210.228 166.172 208.284C166.664 207.624 167.528 207.108 168.464 207.108C169.844 207.108 170.396 207.912 170.396 209.016C170.396 210.312 169.616 211.068 168.416 211.068Z" fill="#616E88"/>
<path d="M166.965 259.12H168.045L171.741 251.128V250.24H166.137V251.188H170.637L166.965 259.12Z" fill="#616E88"/>
<path d="M168.176 306.632C170.216 306.632 171.404 305.576 171.404 304.268C171.404 302.96 170.552 302.336 169.112 301.712C170.312 301.172 170.996 300.584 170.996 299.552C170.996 298.46 170.024 297.368 168.176 297.368C166.364 297.368 165.332 298.448 165.332 299.552C165.332 300.644 166.04 301.208 167.204 301.748C165.812 302.336 164.924 303.044 164.924 304.268C164.924 305.6 166.124 306.632 168.176 306.632ZM168.224 301.328C166.952 300.776 166.364 300.392 166.364 299.576C166.364 298.904 166.964 298.256 168.176 298.256C169.424 298.256 169.976 298.94 169.976 299.612C169.976 300.392 169.46 300.776 168.224 301.328ZM168.176 305.756C166.88 305.756 165.98 305.12 165.98 304.208C165.98 303.32 166.664 302.792 168.104 302.144C169.568 302.756 170.36 303.272 170.36 304.208C170.36 305.156 169.46 305.756 168.176 305.756Z" fill="#616E88"/>
<path d="M167.696 353.928C169.76 353.928 171.284 352.02 171.284 349.164C171.284 346.14 169.892 344.712 168.056 344.712C166.268 344.712 164.996 345.972 164.996 347.688C164.996 349.356 165.98 350.472 167.78 350.472C168.86 350.472 169.676 349.944 170.252 349.344C170.228 351.456 169.268 353.016 167.732 353.016C166.916 353.016 166.424 352.752 165.944 352.38L165.428 353.16C165.92 353.58 166.676 353.928 167.696 353.928ZM167.948 349.572C166.556 349.572 166.016 348.768 166.016 347.664C166.016 346.368 166.796 345.624 167.996 345.624C169.16 345.624 170.072 346.452 170.228 348.396C169.736 349.056 168.872 349.572 167.948 349.572Z" fill="#616E88"/>
<path d="M161.761 401.08H165.949V400.144H164.461V392.2H163.477C163.081 392.572 162.469 392.752 161.785 392.776V393.712C162.301 393.712 162.997 393.532 163.429 393.304V400.144H161.761V401.08ZM170.206 401.248C172.342 401.248 173.53 399.412 173.53 396.64C173.53 393.868 172.342 392.032 170.206 392.032C168.082 392.032 166.858 393.868 166.858 396.64C166.858 399.412 168.082 401.248 170.206 401.248ZM170.206 400.324C168.802 400.324 167.914 399.052 167.914 396.64C167.914 394.228 168.754 392.968 170.206 392.968C171.598 392.968 172.486 394.228 172.486 396.64C172.486 399.052 171.634 400.324 170.206 400.324Z" fill="#616E88"/>
<path d="M164.015 448.4H168.203V447.464H166.715V439.52H165.731C165.335 439.892 164.723 440.072 164.039 440.096V441.032C164.555 441.032 165.251 440.852 165.683 440.624V447.464H164.015V448.4ZM169.253 448.4H173.441V447.464H171.953V439.52H170.969C170.573 439.892 169.961 440.072 169.277 440.096V441.032C169.793 441.032 170.489 440.852 170.921 440.624V447.464H169.253V448.4Z" fill="#616E88"/>
<path d="M162.888 495.72H167.076V494.784H165.588V486.84H164.604C164.208 487.212 163.596 487.392 162.912 487.416V488.352C163.428 488.352 164.124 488.172 164.556 487.944V494.784H162.888V495.72ZM168.007 495.72H173.875V494.784H169.195C169.291 494.028 170.047 493.152 171.595 492.168C173.299 491.088 173.827 490.296 173.827 489.132C173.827 487.68 172.819 486.672 171.175 486.672C169.795 486.672 168.787 487.392 168.139 488.568L168.955 489.072C169.483 488.112 170.215 487.608 171.127 487.608C172.183 487.608 172.795 488.232 172.795 489.204C172.795 490.152 172.255 490.692 170.923 491.544C168.583 493.044 168.007 494.244 168.007 495.528V495.72Z" fill="#616E88"/>
<path d="M37.2411 29.2803H38.6451L39.3771 27.1683H42.7491L43.4691 29.2803H45.0051L41.8611 20.3643H40.3851L37.2411 29.2803ZM39.8331 25.8483L41.0691 22.2483H41.0931L42.3051 25.8483H39.8331Z" fill="#616E88"/>
<path d="M79.6053 29.2803H83.1813C84.9933 29.2803 86.3253 28.4763 86.3253 26.8443C86.3253 25.4883 85.5813 24.8763 84.4893 24.6723V24.6483C85.3893 24.4683 86.0613 23.8443 86.0613 22.6083C86.0613 20.9763 84.7413 20.4003 82.9653 20.4003H79.6053V29.2803ZM81.0813 24.1083V21.7203H82.8453C84.0813 21.7203 84.6213 22.0443 84.6213 22.8963C84.6213 23.7483 83.9973 24.1083 82.8213 24.1083H81.0813ZM81.0813 27.9843V25.3803H82.8693C84.1293 25.3803 84.8493 25.7403 84.8493 26.6883C84.8493 27.5763 84.2973 27.9843 83.0253 27.9843H81.0813Z" fill="#616E88"/>
<path d="M124.671 29.4478C126.723 29.4478 127.815 28.2598 128.247 26.4958L126.819 26.1718C126.483 27.5038 125.835 28.0798 124.683 28.0798C123.183 28.0798 122.283 26.9158 122.283 24.8038C122.283 22.7878 123.159 21.6238 124.659 21.6238C125.835 21.6238 126.351 22.2238 126.687 23.3998L128.115 22.9918C127.719 21.3718 126.735 20.2318 124.671 20.2318C122.439 20.2318 120.771 21.8398 120.771 24.8158C120.771 27.8758 122.391 29.4478 124.671 29.4478Z" fill="#616E88"/>
<path d="M206.767 29.2803H209.299C212.047 29.2803 213.907 27.9723 213.907 24.8043C213.907 21.6963 212.083 20.4003 209.299 20.4003H206.767V29.2803ZM208.267 27.9363V21.7923H209.407C211.447 21.7923 212.407 22.6683 212.407 24.8043C212.407 27.0483 211.459 27.9363 209.431 27.9363H208.267Z" fill="#616E88"/>
<path d="M249.655 29.2803H255.631V27.9123H251.155V25.3323H254.263V24.0003H251.155V21.7923H255.391V20.4003H249.655V29.2803Z" fill="#616E88"/>
<path d="M293.289 29.2798H294.789V25.4998H297.753V24.1678H294.789V21.7918H298.881V20.3998H293.289V29.2798Z" fill="#616E88"/>
<rect x="23.6602" y="50.7002" width="33.8" height="33.8" rx="4" fill="#0033AA"/>
<rect x="24.1602" y="51.2002" width="32.8" height="32.8" rx="3.5" stroke="#616E88" stroke-opacity="0.16"/>
<rect x="23.6602" y="98.0195" width="33.8" height="33.8" rx="4" fill="white"/>
<rect x="24.1602" y="98.5195" width="32.8" height="32.8" rx="3.5" stroke="#616E88" stroke-opacity="0.16"/>
<rect x="23.6602" y="145.34" width="33.8" height="33.8" rx="4" fill="white"/>
<rect x="24.1602" y="145.84" width="32.8" height="32.8" rx="3.5" stroke="#616E88" stroke-opacity="0.16"/>
<rect x="23.6602" y="192.66" width="33.8" height="33.8" rx="4" fill="#0033AA"/>
<rect x="24.1602" y="193.16" width="32.8" height="32.8" rx="3.5" stroke="#616E88" stroke-opacity="0.16"/>
<rect x="23.6602" y="239.98" width="33.8" height="33.8" rx="4" fill="white"/>
<rect x="24.1602" y="240.48" width="32.8" height="32.8" rx="3.5" stroke="#616E88" stroke-opacity="0.16"/>
<rect x="23.6602" y="287.3" width="33.8" height="33.8" rx="4" fill="#D27FE3"/>
<rect x="24.1602" y="287.8" width="32.8" height="32.8" rx="3.5" stroke="#616E88" stroke-opacity="0.16"/>
<rect x="23.6602" y="334.62" width="33.8" height="33.8" rx="4" fill="white"/>
<rect x="24.1602" y="335.12" width="32.8" height="32.8" rx="3.5" stroke="#616E88" stroke-opacity="0.16"/>
<rect x="23.6602" y="381.94" width="33.8" height="33.8" rx="4" fill="#0033AA"/>
<rect x="24.1602" y="382.44" width="32.8" height="32.8" rx="3.5" stroke="#616E88" stroke-opacity="0.16"/>
<rect x="23.6602" y="429.26" width="33.8" height="33.8" rx="4" fill="white"/>
<rect x="24.1602" y="429.76" width="32.8" height="32.8" rx="3.5" stroke="#616E88" stroke-opacity="0.16"/>
<rect x="23.6602" y="476.58" width="33.8" height="33.8" rx="4" fill="white"/>
<rect x="24.1602" y="477.08" width="32.8" height="32.8" rx="3.5" stroke="#616E88" stroke-opacity="0.16"/>
<rect x="193.787" y="50.7002" width="33.8" height="33.8" rx="4" fill="#D27FE3"/>
<rect x="194.287" y="51.2002" width="32.8" height="32.8" rx="3.5" stroke="#616E88" stroke-opacity="0.16"/>
<rect x="193.785" y="98.0195" width="33.8" height="33.8" rx="4" fill="white"/>
<rect x="194.285" y="98.5195" width="32.8" height="32.8" rx="3.5" stroke="#616E88" stroke-opacity="0.16"/>
<rect x="193.787" y="145.34" width="33.8" height="33.8" rx="4" fill="white"/>
<rect x="194.287" y="145.84" width="32.8" height="32.8" rx="3.5" stroke="#616E88" stroke-opacity="0.16"/>
<rect x="193.787" y="192.66" width="33.8" height="33.8" rx="4" fill="#D27FE3"/>
<rect x="194.287" y="193.16" width="32.8" height="32.8" rx="3.5" stroke="#616E88" stroke-opacity="0.16"/>
<rect x="193.787" y="239.98" width="33.8" height="33.8" rx="4" fill="#D27FE3"/>
<rect x="194.287" y="240.48" width="32.8" height="32.8" rx="3.5" stroke="#616E88" stroke-opacity="0.16"/>
<rect x="193.787" y="287.3" width="33.8" height="33.8" rx="4" fill="white"/>
<rect x="194.287" y="287.8" width="32.8" height="32.8" rx="3.5" stroke="#616E88" stroke-opacity="0.16"/>
<rect x="193.787" y="334.62" width="33.8" height="33.8" rx="4" fill="white"/>
<rect x="194.287" y="335.12" width="32.8" height="32.8" rx="3.5" stroke="#616E88" stroke-opacity="0.16"/>
<rect x="193.787" y="381.94" width="33.8" height="33.8" rx="4" fill="white"/>
<rect x="194.287" y="382.44" width="32.8" height="32.8" rx="3.5" stroke="#616E88" stroke-opacity="0.16"/>
<rect x="193.787" y="429.26" width="33.8" height="33.8" rx="4" fill="white"/>
<rect x="194.287" y="429.76" width="32.8" height="32.8" rx="3.5" stroke="#616E88" stroke-opacity="0.16"/>
<rect x="193.787" y="476.58" width="33.8" height="33.8" rx="4" fill="white"/>
<rect x="194.287" y="477.08" width="32.8" height="32.8" rx="3.5" stroke="#616E88" stroke-opacity="0.16"/>
<rect x="66.4727" y="50.7002" width="33.8" height="33.8" rx="4" fill="white"/>
<rect x="66.9727" y="51.2002" width="32.8" height="32.8" rx="3.5" stroke="#616E88" stroke-opacity="0.16"/>
<rect x="66.4727" y="98.0195" width="33.8" height="33.8" rx="4" fill="white"/>
<rect x="66.9727" y="98.5195" width="32.8" height="32.8" rx="3.5" stroke="#616E88" stroke-opacity="0.16"/>
<rect x="66.4727" y="145.34" width="33.8" height="33.8" rx="4" fill="#0033AA"/>
<rect x="66.9727" y="145.84" width="32.8" height="32.8" rx="3.5" stroke="#616E88" stroke-opacity="0.16"/>
<rect x="66.4727" y="192.66" width="33.8" height="33.8" rx="4" fill="white"/>
<rect x="66.9727" y="193.16" width="32.8" height="32.8" rx="3.5" stroke="#616E88" stroke-opacity="0.16"/>
<rect x="66.4727" y="239.98" width="33.8" height="33.8" rx="4" fill="#D27FE3"/>
<rect x="66.9727" y="240.48" width="32.8" height="32.8" rx="3.5" stroke="#616E88" stroke-opacity="0.16"/>
<rect x="66.4727" y="287.3" width="33.8" height="33.8" rx="4" fill="white"/>
<rect x="66.9727" y="287.8" width="32.8" height="32.8" rx="3.5" stroke="#616E88" stroke-opacity="0.16"/>
<rect x="66.4727" y="334.62" width="33.8" height="33.8" rx="4" fill="#0033AA"/>
<rect x="66.9727" y="335.12" width="32.8" height="32.8" rx="3.5" stroke="#616E88" stroke-opacity="0.16"/>
<rect x="66.4727" y="381.94" width="33.8" height="33.8" rx="4" fill="#0033AA"/>
<rect x="66.9727" y="382.44" width="32.8" height="32.8" rx="3.5" stroke="#616E88" stroke-opacity="0.16"/>
<rect x="66.4727" y="429.26" width="33.8" height="33.8" rx="4" fill="#0033AA"/>
<rect x="66.9727" y="429.76" width="32.8" height="32.8" rx="3.5" stroke="#616E88" stroke-opacity="0.16"/>
<rect x="66.4727" y="476.58" width="33.8" height="33.8" rx="4" fill="white"/>
<rect x="66.9727" y="477.08" width="32.8" height="32.8" rx="3.5" stroke="#616E88" stroke-opacity="0.16"/>
<rect x="236.602" y="50.7002" width="33.8" height="33.8" rx="4" fill="#D27FE3"/>
<rect x="237.102" y="51.2002" width="32.8" height="32.8" rx="3.5" stroke="#616E88" stroke-opacity="0.16"/>
<rect x="236.602" y="98.0195" width="33.8" height="33.8" rx="4" fill="white"/>
<rect x="237.102" y="98.5195" width="32.8" height="32.8" rx="3.5" stroke="#616E88" stroke-opacity="0.16"/>
<rect x="236.602" y="145.34" width="33.8" height="33.8" rx="4" fill="#0033AA"/>
<rect x="237.102" y="145.84" width="32.8" height="32.8" rx="3.5" stroke="#616E88" stroke-opacity="0.16"/>
<rect x="236.602" y="192.66" width="33.8" height="33.8" rx="4" fill="white"/>
<rect x="237.102" y="193.16" width="32.8" height="32.8" rx="3.5" stroke="#616E88" stroke-opacity="0.16"/>
<rect x="236.602" y="239.98" width="33.8" height="33.8" rx="4" fill="white"/>
<rect x="237.102" y="240.48" width="32.8" height="32.8" rx="3.5" stroke="#616E88" stroke-opacity="0.16"/>
<rect x="236.602" y="287.3" width="33.8" height="33.8" rx="4" fill="#0033AA"/>
<rect x="237.102" y="287.8" width="32.8" height="32.8" rx="3.5" stroke="#616E88" stroke-opacity="0.16"/>
<rect x="236.602" y="334.62" width="33.8" height="33.8" rx="4" fill="white"/>
<rect x="237.102" y="335.12" width="32.8" height="32.8" rx="3.5" stroke="#616E88" stroke-opacity="0.16"/>
<rect x="236.602" y="381.94" width="33.8" height="33.8" rx="4" fill="white"/>
<rect x="237.102" y="382.44" width="32.8" height="32.8" rx="3.5" stroke="#616E88" stroke-opacity="0.16"/>
<rect x="236.602" y="429.26" width="33.8" height="33.8" rx="4" fill="white"/>
<rect x="237.102" y="429.76" width="32.8" height="32.8" rx="3.5" stroke="#616E88" stroke-opacity="0.16"/>
<rect x="236.602" y="476.58" width="33.8" height="33.8" rx="4" fill="#0033AA"/>
<rect x="237.102" y="477.08" width="32.8" height="32.8" rx="3.5" stroke="#616E88" stroke-opacity="0.16"/>
<rect x="109.287" y="50.7002" width="33.8" height="33.8" rx="4" fill="white"/>
<rect x="109.787" y="51.2002" width="32.8" height="32.8" rx="3.5" stroke="#616E88" stroke-opacity="0.16"/>
<rect x="109.285" y="98.0195" width="33.8" height="33.8" rx="4" fill="white"/>
<rect x="109.785" y="98.5195" width="32.8" height="32.8" rx="3.5" stroke="#616E88" stroke-opacity="0.16"/>
<rect x="109.287" y="145.34" width="33.8" height="33.8" rx="4" fill="white"/>
<rect x="109.787" y="145.84" width="32.8" height="32.8" rx="3.5" stroke="#616E88" stroke-opacity="0.16"/>
<rect x="109.287" y="192.66" width="33.8" height="33.8" rx="4" fill="#D27FE3"/>
<rect x="109.787" y="193.16" width="32.8" height="32.8" rx="3.5" stroke="#616E88" stroke-opacity="0.16"/>
<rect x="109.287" y="239.98" width="33.8" height="33.8" rx="4" fill="white"/>
<rect x="109.787" y="240.48" width="32.8" height="32.8" rx="3.5" stroke="#616E88" stroke-opacity="0.16"/>
<rect x="109.287" y="287.3" width="33.8" height="33.8" rx="4" fill="white"/>
<rect x="109.787" y="287.8" width="32.8" height="32.8" rx="3.5" stroke="#616E88" stroke-opacity="0.16"/>
<rect x="109.287" y="334.62" width="33.8" height="33.8" rx="4" fill="white"/>
<rect x="109.787" y="335.12" width="32.8" height="32.8" rx="3.5" stroke="#616E88" stroke-opacity="0.16"/>
<rect x="109.287" y="381.94" width="33.8" height="33.8" rx="4" fill="#0033AA"/>
<rect x="109.787" y="382.44" width="32.8" height="32.8" rx="3.5" stroke="#616E88" stroke-opacity="0.16"/>
<rect x="109.287" y="429.26" width="33.8" height="33.8" rx="4" fill="#D27FE3"/>
<rect x="109.787" y="429.76" width="32.8" height="32.8" rx="3.5" stroke="#616E88" stroke-opacity="0.16"/>
<rect x="109.287" y="476.58" width="33.8" height="33.8" rx="4" fill="#D27FE3"/>
<rect x="109.787" y="477.08" width="32.8" height="32.8" rx="3.5" stroke="#616E88" stroke-opacity="0.16"/>
<rect x="279.414" y="50.7002" width="33.8" height="33.8" rx="4" fill="white"/>
<rect x="279.914" y="51.2002" width="32.8" height="32.8" rx="3.5" stroke="#616E88" stroke-opacity="0.16"/>
<rect x="279.414" y="98.0195" width="33.8" height="33.8" rx="4" fill="white"/>
<rect x="279.914" y="98.5195" width="32.8" height="32.8" rx="3.5" stroke="#616E88" stroke-opacity="0.16"/>
<rect x="279.414" y="145.34" width="33.8" height="33.8" rx="4" fill="#D27FE3"/>
<rect x="279.914" y="145.84" width="32.8" height="32.8" rx="3.5" stroke="#616E88" stroke-opacity="0.16"/>
<rect x="279.414" y="192.66" width="33.8" height="33.8" rx="4" fill="white"/>
<rect x="279.914" y="193.16" width="32.8" height="32.8" rx="3.5" stroke="#616E88" stroke-opacity="0.16"/>
<rect x="279.414" y="239.98" width="33.8" height="33.8" rx="4" fill="#D27FE3"/>
<rect x="279.914" y="240.48" width="32.8" height="32.8" rx="3.5" stroke="#616E88" stroke-opacity="0.16"/>
<rect x="279.414" y="287.3" width="33.8" height="33.8" rx="4" fill="white"/>
<rect x="279.914" y="287.8" width="32.8" height="32.8" rx="3.5" stroke="#616E88" stroke-opacity="0.16"/>
<rect x="279.414" y="334.62" width="33.8" height="33.8" rx="4" fill="white"/>
<rect x="279.914" y="335.12" width="32.8" height="32.8" rx="3.5" stroke="#616E88" stroke-opacity="0.16"/>
<rect x="279.414" y="381.94" width="33.8" height="33.8" rx="4" fill="white"/>
<rect x="279.914" y="382.44" width="32.8" height="32.8" rx="3.5" stroke="#616E88" stroke-opacity="0.16"/>
<rect x="279.414" y="429.26" width="33.8" height="33.8" rx="4" fill="#0033AA"/>
<rect x="279.914" y="429.76" width="32.8" height="32.8" rx="3.5" stroke="#616E88" stroke-opacity="0.16"/>
<rect x="279.414" y="476.58" width="33.8" height="33.8" rx="4" fill="white"/>
<rect x="279.914" y="477.08" width="32.8" height="32.8" rx="3.5" stroke="#616E88" stroke-opacity="0.16"/>
</svg>
