<svg width="15" height="21" viewBox="0 0 15 21" fill="none" xmlns="http://www.w3.org/2000/svg">
<path d="M13.125 6.75H1.875C0.820312 6.75 0 7.60938 0 8.625V17.375C0 18.4297 0.820312 19.25 1.875 19.25H2.5V19.875C2.5 20.2266 2.77344 20.5 3.125 20.5H4.375C4.6875 20.5 5 20.2266 5 19.875V19.25H10V19.875C10 20.2266 10.2734 20.5 10.625 20.5H11.875C12.1875 20.5 12.5 20.2266 12.5 19.875V19.25H13.125C14.1406 19.25 15 18.4297 15 17.375V8.625C15 7.60938 14.1406 6.75 13.125 6.75ZM12.5 15.1875C12.5 15.3828 12.3438 15.5 12.1875 15.5H2.8125C2.61719 15.5 2.5 15.3828 2.5 15.1875V14.5625C2.5 14.4062 2.61719 14.25 2.8125 14.25H12.1875C12.3438 14.25 12.5 14.4062 12.5 14.5625V15.1875ZM12.5 11.4375C12.5 11.6328 12.3438 11.75 12.1875 11.75H2.8125C2.61719 11.75 2.5 11.6328 2.5 11.4375V10.8125C2.5 10.6562 2.61719 10.5 2.8125 10.5H12.1875C12.3438 10.5 12.5 10.6562 12.5 10.8125V11.4375ZM5.625 2.375H9.375V5.5H11.25V2.375C11.25 1.35938 10.3906 0.5 9.375 0.5H5.625C4.57031 0.5 3.75 1.35938 3.75 2.375V5.5H5.625V2.375Z" fill="#616E88"/>
</svg>
