<svg width="11" height="15" viewBox="0 0 11 15" fill="none" xmlns="http://www.w3.org/2000/svg">
<path d="M10.0625 2.0625C10.2812 2.0625 10.5 1.87109 10.5 1.625V1.1875C10.5 0.96875 10.2812 0.75 10.0625 0.75H0.4375C0.191406 0.75 0 0.96875 0 1.1875V1.625C0 1.87109 0.191406 2.0625 0.4375 2.0625H0.875V6.35547C0.300781 6.62891 0 6.95703 0 7.3125C0 9.17188 0.929688 10.7852 2.35156 11.7148L1.77734 13.6289C1.61328 14.2031 2.02344 14.75 2.625 14.75H7.875C8.44922 14.75 8.85938 14.2031 8.69531 13.6289L8.12109 11.7148C9.54297 10.7852 10.5 9.17188 10.5 7.3125C10.5 6.95703 10.1719 6.62891 9.625 6.35547V2.0625H10.0625ZM2.1875 2.71875C2.1875 2.60938 2.26953 2.5 2.40625 2.5H3.71875C3.82812 2.5 3.9375 2.60938 3.9375 2.71875V3.15625C3.9375 3.29297 3.82812 3.375 3.71875 3.375H2.40625C2.26953 3.375 2.1875 3.29297 2.1875 3.15625V2.71875ZM5.25 8.1875C3.11719 8.1875 1.42188 7.80469 1.42188 7.3125C1.42188 6.84766 3.11719 6.4375 5.25 6.4375C7.35547 6.4375 9.05078 6.84766 9.05078 7.3125C9.05078 7.80469 7.35547 8.1875 5.25 8.1875Z" fill="#616E88"/>
</svg>
