<svg width="25" height="19" viewBox="0 0 25 19" fill="none" xmlns="http://www.w3.org/2000/svg">
<path d="M3.75 8.25C5.11719 8.25 6.25 7.15625 6.25 5.75C6.25 4.38281 5.11719 3.25 3.75 3.25C2.34375 3.25 1.25 4.38281 1.25 5.75C1.25 7.15625 2.34375 8.25 3.75 8.25ZM21.25 8.25C22.6172 8.25 23.75 7.15625 23.75 5.75C23.75 4.38281 22.6172 3.25 21.25 3.25C19.8438 3.25 18.75 4.38281 18.75 5.75C18.75 7.15625 19.8438 8.25 21.25 8.25ZM22.5 9.5H20C19.2969 9.5 18.6719 9.8125 18.2031 10.2422C19.8047 11.1016 20.8984 12.6641 21.1719 14.5H23.75C24.4141 14.5 25 13.9531 25 13.25V12C25 10.6328 23.8672 9.5 22.5 9.5ZM12.5 9.5C14.8828 9.5 16.875 7.54688 16.875 5.125C16.875 2.74219 14.8828 0.75 12.5 0.75C10.0781 0.75 8.125 2.74219 8.125 5.125C8.125 7.54688 10.0781 9.5 12.5 9.5ZM15.4688 10.75H15.1562C14.3359 11.1406 13.4375 11.375 12.5 11.375C11.5234 11.375 10.625 11.1406 9.80469 10.75H9.49219C6.99219 10.75 5 12.7812 5 15.2812V16.375C5 17.4297 5.82031 18.25 6.875 18.25H18.125C19.1406 18.25 20 17.4297 20 16.375V15.2812C20 12.7812 17.9688 10.75 15.4688 10.75ZM6.75781 10.2422C6.28906 9.8125 5.66406 9.5 5 9.5H2.5C1.09375 9.5 0 10.6328 0 12V13.25C0 13.9531 0.546875 14.5 1.25 14.5H3.78906C4.0625 12.6641 5.15625 11.1016 6.75781 10.2422Z" fill="#616E88"/>
</svg>
