<svg width="12" height="8" viewBox="0 0 12 8" fill="none" xmlns="http://www.w3.org/2000/svg">
<path d="M6 7C5.80271 7 5.6336 6.92672 5.48703 6.76888L1.19166 2.38332C1.06764 2.2593 1 2.10147 1 1.91545C1 1.54341 1.29312 1.24465 1.6708 1.24465C1.85682 1.24465 2.02029 1.32356 2.14994 1.44758L6 5.3991L9.85006 1.44758C9.97971 1.32356 10.1488 1.24465 10.3292 1.24465C10.7069 1.24465 11 1.54341 11 1.91545C11 2.10147 10.9324 2.2593 10.8083 2.38332L6.5186 6.76888C6.3664 6.92672 6.19729 7 6 7Z" fill="#616E88" stroke="#616E88" stroke-width="0.5"/>
</svg>
